<?xml version="1.0" encoding="utf-8" standalone="no"?>
<!DOCTYPE svg PUBLIC "-//W3C//DTD SVG 1.1//EN"
  "http://www.w3.org/Graphics/SVG/1.1/DTD/svg11.dtd">
<svg xmlns:xlink="http://www.w3.org/1999/xlink" width="628.06875pt" height="263.99625pt" viewBox="0 0 628.06875 263.99625" xmlns="http://www.w3.org/2000/svg" version="1.1">
 <metadata>
  <rdf:RDF xmlns:dc="http://purl.org/dc/elements/1.1/" xmlns:cc="http://creativecommons.org/ns#" xmlns:rdf="http://www.w3.org/1999/02/22-rdf-syntax-ns#">
   <cc:Work>
    <dc:type rdf:resource="http://purl.org/dc/dcmitype/StillImage"/>
    <dc:date>2025-01-20T12:07:43.251102</dc:date>
    <dc:format>image/svg+xml</dc:format>
    <dc:creator>
     <cc:Agent>
      <dc:title>Matplotlib v3.9.2, https://matplotlib.org/</dc:title>
     </cc:Agent>
    </dc:creator>
   </cc:Work>
  </rdf:RDF>
 </metadata>
 <defs>
  <style type="text/css">*{stroke-linejoin: round; stroke-linecap: butt}</style>
 </defs>
 <g id="figure_1">
  <g id="patch_1">
   <path d="M 0 263.99625 
L 628.06875 263.99625 
L 628.06875 0 
L 0 0 
z
" style="fill: #ffffff"/>
  </g>
  <g id="axes_1">
   <g id="patch_2">
    <path d="M 62.86875 226.44 
L 316.505114 226.44 
L 316.505114 32.4 
L 62.86875 32.4 
z
" style="fill: #ffffff"/>
   </g>
   <g id="matplotlib.axis_1">
    <g id="xtick_1">
     <g id="line2d_1">
      <defs>
       <path id="m101acbfc31" d="M 0 0 
L 0 3.5 
" style="stroke: #000000; stroke-width: 0.8"/>
      </defs>
      <g>
       <use xlink:href="#m101acbfc31" x="65.827395" y="226.44" style="stroke: #000000; stroke-width: 0.8"/>
      </g>
     </g>
     <g id="text_1">
      <!-- 0.00 -->
      <g transform="translate(54.694582 241.038437) scale(0.1 -0.1)">
       <defs>
        <path id="DejaVuSans-30" d="M 2034 4250 
Q 1547 4250 1301 3770 
Q 1056 3291 1056 2328 
Q 1056 1369 1301 889 
Q 1547 409 2034 409 
Q 2525 409 2770 889 
Q 3016 1369 3016 2328 
Q 3016 3291 2770 3770 
Q 2525 4250 2034 4250 
z
M 2034 4750 
Q 2819 4750 3233 4129 
Q 3647 3509 3647 2328 
Q 3647 1150 3233 529 
Q 2819 -91 2034 -91 
Q 1250 -91 836 529 
Q 422 1150 422 2328 
Q 422 3509 836 4129 
Q 1250 4750 2034 4750 
z
" transform="scale(0.015625)"/>
        <path id="DejaVuSans-2e" d="M 684 794 
L 1344 794 
L 1344 0 
L 684 0 
L 684 794 
z
" transform="scale(0.015625)"/>
       </defs>
       <use xlink:href="#DejaVuSans-30"/>
       <use xlink:href="#DejaVuSans-2e" x="63.623047"/>
       <use xlink:href="#DejaVuSans-30" x="95.410156"/>
       <use xlink:href="#DejaVuSans-30" x="159.033203"/>
      </g>
     </g>
    </g>
    <g id="xtick_2">
     <g id="line2d_2">
      <g>
       <use xlink:href="#m101acbfc31" x="105.782084" y="226.44" style="stroke: #000000; stroke-width: 0.8"/>
      </g>
     </g>
     <g id="text_2">
      <!-- 0.05 -->
      <g transform="translate(94.649272 241.038437) scale(0.1 -0.1)">
       <defs>
        <path id="DejaVuSans-35" d="M 691 4666 
L 3169 4666 
L 3169 4134 
L 1269 4134 
L 1269 2991 
Q 1406 3038 1543 3061 
Q 1681 3084 1819 3084 
Q 2600 3084 3056 2656 
Q 3513 2228 3513 1497 
Q 3513 744 3044 326 
Q 2575 -91 1722 -91 
Q 1428 -91 1123 -41 
Q 819 9 494 109 
L 494 744 
Q 775 591 1075 516 
Q 1375 441 1709 441 
Q 2250 441 2565 725 
Q 2881 1009 2881 1497 
Q 2881 1984 2565 2268 
Q 2250 2553 1709 2553 
Q 1456 2553 1204 2497 
Q 953 2441 691 2322 
L 691 4666 
z
" transform="scale(0.015625)"/>
       </defs>
       <use xlink:href="#DejaVuSans-30"/>
       <use xlink:href="#DejaVuSans-2e" x="63.623047"/>
       <use xlink:href="#DejaVuSans-30" x="95.410156"/>
       <use xlink:href="#DejaVuSans-35" x="159.033203"/>
      </g>
     </g>
    </g>
    <g id="xtick_3">
     <g id="line2d_3">
      <g>
       <use xlink:href="#m101acbfc31" x="145.736774" y="226.44" style="stroke: #000000; stroke-width: 0.8"/>
      </g>
     </g>
     <g id="text_3">
      <!-- 0.10 -->
      <g transform="translate(134.603961 241.038437) scale(0.1 -0.1)">
       <defs>
        <path id="DejaVuSans-31" d="M 794 531 
L 1825 531 
L 1825 4091 
L 703 3866 
L 703 4441 
L 1819 4666 
L 2450 4666 
L 2450 531 
L 3481 531 
L 3481 0 
L 794 0 
L 794 531 
z
" transform="scale(0.015625)"/>
       </defs>
       <use xlink:href="#DejaVuSans-30"/>
       <use xlink:href="#DejaVuSans-2e" x="63.623047"/>
       <use xlink:href="#DejaVuSans-31" x="95.410156"/>
       <use xlink:href="#DejaVuSans-30" x="159.033203"/>
      </g>
     </g>
    </g>
    <g id="xtick_4">
     <g id="line2d_4">
      <g>
       <use xlink:href="#m101acbfc31" x="185.691463" y="226.44" style="stroke: #000000; stroke-width: 0.8"/>
      </g>
     </g>
     <g id="text_4">
      <!-- 0.15 -->
      <g transform="translate(174.55865 241.038437) scale(0.1 -0.1)">
       <use xlink:href="#DejaVuSans-30"/>
       <use xlink:href="#DejaVuSans-2e" x="63.623047"/>
       <use xlink:href="#DejaVuSans-31" x="95.410156"/>
       <use xlink:href="#DejaVuSans-35" x="159.033203"/>
      </g>
     </g>
    </g>
    <g id="xtick_5">
     <g id="line2d_5">
      <g>
       <use xlink:href="#m101acbfc31" x="225.646152" y="226.44" style="stroke: #000000; stroke-width: 0.8"/>
      </g>
     </g>
     <g id="text_5">
      <!-- 0.20 -->
      <g transform="translate(214.51334 241.038437) scale(0.1 -0.1)">
       <defs>
        <path id="DejaVuSans-32" d="M 1228 531 
L 3431 531 
L 3431 0 
L 469 0 
L 469 531 
Q 828 903 1448 1529 
Q 2069 2156 2228 2338 
Q 2531 2678 2651 2914 
Q 2772 3150 2772 3378 
Q 2772 3750 2511 3984 
Q 2250 4219 1831 4219 
Q 1534 4219 1204 4116 
Q 875 4013 500 3803 
L 500 4441 
Q 881 4594 1212 4672 
Q 1544 4750 1819 4750 
Q 2544 4750 2975 4387 
Q 3406 4025 3406 3419 
Q 3406 3131 3298 2873 
Q 3191 2616 2906 2266 
Q 2828 2175 2409 1742 
Q 1991 1309 1228 531 
z
" transform="scale(0.015625)"/>
       </defs>
       <use xlink:href="#DejaVuSans-30"/>
       <use xlink:href="#DejaVuSans-2e" x="63.623047"/>
       <use xlink:href="#DejaVuSans-32" x="95.410156"/>
       <use xlink:href="#DejaVuSans-30" x="159.033203"/>
      </g>
     </g>
    </g>
    <g id="xtick_6">
     <g id="line2d_6">
      <g>
       <use xlink:href="#m101acbfc31" x="265.600842" y="226.44" style="stroke: #000000; stroke-width: 0.8"/>
      </g>
     </g>
     <g id="text_6">
      <!-- 0.25 -->
      <g transform="translate(254.468029 241.038437) scale(0.1 -0.1)">
       <use xlink:href="#DejaVuSans-30"/>
       <use xlink:href="#DejaVuSans-2e" x="63.623047"/>
       <use xlink:href="#DejaVuSans-32" x="95.410156"/>
       <use xlink:href="#DejaVuSans-35" x="159.033203"/>
      </g>
     </g>
    </g>
    <g id="xtick_7">
     <g id="line2d_7">
      <g>
       <use xlink:href="#m101acbfc31" x="305.555531" y="226.44" style="stroke: #000000; stroke-width: 0.8"/>
      </g>
     </g>
     <g id="text_7">
      <!-- 0.30 -->
      <g transform="translate(294.422719 241.038437) scale(0.1 -0.1)">
       <defs>
        <path id="DejaVuSans-33" d="M 2597 2516 
Q 3050 2419 3304 2112 
Q 3559 1806 3559 1356 
Q 3559 666 3084 287 
Q 2609 -91 1734 -91 
Q 1441 -91 1130 -33 
Q 819 25 488 141 
L 488 750 
Q 750 597 1062 519 
Q 1375 441 1716 441 
Q 2309 441 2620 675 
Q 2931 909 2931 1356 
Q 2931 1769 2642 2001 
Q 2353 2234 1838 2234 
L 1294 2234 
L 1294 2753 
L 1863 2753 
Q 2328 2753 2575 2939 
Q 2822 3125 2822 3475 
Q 2822 3834 2567 4026 
Q 2313 4219 1838 4219 
Q 1578 4219 1281 4162 
Q 984 4106 628 3988 
L 628 4550 
Q 988 4650 1302 4700 
Q 1616 4750 1894 4750 
Q 2613 4750 3031 4423 
Q 3450 4097 3450 3541 
Q 3450 3153 3228 2886 
Q 3006 2619 2597 2516 
z
" transform="scale(0.015625)"/>
       </defs>
       <use xlink:href="#DejaVuSans-30"/>
       <use xlink:href="#DejaVuSans-2e" x="63.623047"/>
       <use xlink:href="#DejaVuSans-33" x="95.410156"/>
       <use xlink:href="#DejaVuSans-30" x="159.033203"/>
      </g>
     </g>
    </g>
    <g id="text_8">
     <!-- r (m) -->
     <g transform="translate(177.270526 254.716562) scale(0.1 -0.1)">
      <defs>
       <path id="DejaVuSans-72" d="M 2631 2963 
Q 2534 3019 2420 3045 
Q 2306 3072 2169 3072 
Q 1681 3072 1420 2755 
Q 1159 2438 1159 1844 
L 1159 0 
L 581 0 
L 581 3500 
L 1159 3500 
L 1159 2956 
Q 1341 3275 1631 3429 
Q 1922 3584 2338 3584 
Q 2397 3584 2469 3576 
Q 2541 3569 2628 3553 
L 2631 2963 
z
" transform="scale(0.015625)"/>
       <path id="DejaVuSans-20" transform="scale(0.015625)"/>
       <path id="DejaVuSans-28" d="M 1984 4856 
Q 1566 4138 1362 3434 
Q 1159 2731 1159 2009 
Q 1159 1288 1364 580 
Q 1569 -128 1984 -844 
L 1484 -844 
Q 1016 -109 783 600 
Q 550 1309 550 2009 
Q 550 2706 781 3412 
Q 1013 4119 1484 4856 
L 1984 4856 
z
" transform="scale(0.015625)"/>
       <path id="DejaVuSans-6d" d="M 3328 2828 
Q 3544 3216 3844 3400 
Q 4144 3584 4550 3584 
Q 5097 3584 5394 3201 
Q 5691 2819 5691 2113 
L 5691 0 
L 5113 0 
L 5113 2094 
Q 5113 2597 4934 2840 
Q 4756 3084 4391 3084 
Q 3944 3084 3684 2787 
Q 3425 2491 3425 1978 
L 3425 0 
L 2847 0 
L 2847 2094 
Q 2847 2600 2669 2842 
Q 2491 3084 2119 3084 
Q 1678 3084 1418 2786 
Q 1159 2488 1159 1978 
L 1159 0 
L 581 0 
L 581 3500 
L 1159 3500 
L 1159 2956 
Q 1356 3278 1631 3431 
Q 1906 3584 2284 3584 
Q 2666 3584 2933 3390 
Q 3200 3197 3328 2828 
z
" transform="scale(0.015625)"/>
       <path id="DejaVuSans-29" d="M 513 4856 
L 1013 4856 
Q 1481 4119 1714 3412 
Q 1947 2706 1947 2009 
Q 1947 1309 1714 600 
Q 1481 -109 1013 -844 
L 513 -844 
Q 928 -128 1133 580 
Q 1338 1288 1338 2009 
Q 1338 2731 1133 3434 
Q 928 4138 513 4856 
z
" transform="scale(0.015625)"/>
      </defs>
      <use xlink:href="#DejaVuSans-72"/>
      <use xlink:href="#DejaVuSans-20" x="41.113281"/>
      <use xlink:href="#DejaVuSans-28" x="72.900391"/>
      <use xlink:href="#DejaVuSans-6d" x="111.914062"/>
      <use xlink:href="#DejaVuSans-29" x="209.326172"/>
     </g>
    </g>
   </g>
   <g id="matplotlib.axis_2">
    <g id="ytick_1">
     <g id="line2d_8">
      <defs>
       <path id="mc1b5fe0fc9" d="M 0 0 
L -3.5 0 
" style="stroke: #000000; stroke-width: 0.8"/>
      </defs>
      <g>
       <use xlink:href="#mc1b5fe0fc9" x="62.86875" y="215.511419" style="stroke: #000000; stroke-width: 0.8"/>
      </g>
     </g>
     <g id="text_9">
      <!-- 0.0025 -->
      <g transform="translate(20.878125 219.310638) scale(0.1 -0.1)">
       <use xlink:href="#DejaVuSans-30"/>
       <use xlink:href="#DejaVuSans-2e" x="63.623047"/>
       <use xlink:href="#DejaVuSans-30" x="95.410156"/>
       <use xlink:href="#DejaVuSans-30" x="159.033203"/>
       <use xlink:href="#DejaVuSans-32" x="222.65625"/>
       <use xlink:href="#DejaVuSans-35" x="286.279297"/>
      </g>
     </g>
    </g>
    <g id="ytick_2">
     <g id="line2d_9">
      <g>
       <use xlink:href="#mc1b5fe0fc9" x="62.86875" y="193.833834" style="stroke: #000000; stroke-width: 0.8"/>
      </g>
     </g>
     <g id="text_10">
      <!-- 0.0050 -->
      <g transform="translate(20.878125 197.633053) scale(0.1 -0.1)">
       <use xlink:href="#DejaVuSans-30"/>
       <use xlink:href="#DejaVuSans-2e" x="63.623047"/>
       <use xlink:href="#DejaVuSans-30" x="95.410156"/>
       <use xlink:href="#DejaVuSans-30" x="159.033203"/>
       <use xlink:href="#DejaVuSans-35" x="222.65625"/>
       <use xlink:href="#DejaVuSans-30" x="286.279297"/>
      </g>
     </g>
    </g>
    <g id="ytick_3">
     <g id="line2d_10">
      <g>
       <use xlink:href="#mc1b5fe0fc9" x="62.86875" y="172.15625" style="stroke: #000000; stroke-width: 0.8"/>
      </g>
     </g>
     <g id="text_11">
      <!-- 0.0075 -->
      <g transform="translate(20.878125 175.955469) scale(0.1 -0.1)">
       <defs>
        <path id="DejaVuSans-37" d="M 525 4666 
L 3525 4666 
L 3525 4397 
L 1831 0 
L 1172 0 
L 2766 4134 
L 525 4134 
L 525 4666 
z
" transform="scale(0.015625)"/>
       </defs>
       <use xlink:href="#DejaVuSans-30"/>
       <use xlink:href="#DejaVuSans-2e" x="63.623047"/>
       <use xlink:href="#DejaVuSans-30" x="95.410156"/>
       <use xlink:href="#DejaVuSans-30" x="159.033203"/>
       <use xlink:href="#DejaVuSans-37" x="222.65625"/>
       <use xlink:href="#DejaVuSans-35" x="286.279297"/>
      </g>
     </g>
    </g>
    <g id="ytick_4">
     <g id="line2d_11">
      <g>
       <use xlink:href="#mc1b5fe0fc9" x="62.86875" y="150.478665" style="stroke: #000000; stroke-width: 0.8"/>
      </g>
     </g>
     <g id="text_12">
      <!-- 0.0100 -->
      <g transform="translate(20.878125 154.277884) scale(0.1 -0.1)">
       <use xlink:href="#DejaVuSans-30"/>
       <use xlink:href="#DejaVuSans-2e" x="63.623047"/>
       <use xlink:href="#DejaVuSans-30" x="95.410156"/>
       <use xlink:href="#DejaVuSans-31" x="159.033203"/>
       <use xlink:href="#DejaVuSans-30" x="222.65625"/>
       <use xlink:href="#DejaVuSans-30" x="286.279297"/>
      </g>
     </g>
    </g>
    <g id="ytick_5">
     <g id="line2d_12">
      <g>
       <use xlink:href="#mc1b5fe0fc9" x="62.86875" y="128.801081" style="stroke: #000000; stroke-width: 0.8"/>
      </g>
     </g>
     <g id="text_13">
      <!-- 0.0125 -->
      <g transform="translate(20.878125 132.6003) scale(0.1 -0.1)">
       <use xlink:href="#DejaVuSans-30"/>
       <use xlink:href="#DejaVuSans-2e" x="63.623047"/>
       <use xlink:href="#DejaVuSans-30" x="95.410156"/>
       <use xlink:href="#DejaVuSans-31" x="159.033203"/>
       <use xlink:href="#DejaVuSans-32" x="222.65625"/>
       <use xlink:href="#DejaVuSans-35" x="286.279297"/>
      </g>
     </g>
    </g>
    <g id="ytick_6">
     <g id="line2d_13">
      <g>
       <use xlink:href="#mc1b5fe0fc9" x="62.86875" y="107.123496" style="stroke: #000000; stroke-width: 0.8"/>
      </g>
     </g>
     <g id="text_14">
      <!-- 0.0150 -->
      <g transform="translate(20.878125 110.922715) scale(0.1 -0.1)">
       <use xlink:href="#DejaVuSans-30"/>
       <use xlink:href="#DejaVuSans-2e" x="63.623047"/>
       <use xlink:href="#DejaVuSans-30" x="95.410156"/>
       <use xlink:href="#DejaVuSans-31" x="159.033203"/>
       <use xlink:href="#DejaVuSans-35" x="222.65625"/>
       <use xlink:href="#DejaVuSans-30" x="286.279297"/>
      </g>
     </g>
    </g>
    <g id="ytick_7">
     <g id="line2d_14">
      <g>
       <use xlink:href="#mc1b5fe0fc9" x="62.86875" y="85.445912" style="stroke: #000000; stroke-width: 0.8"/>
      </g>
     </g>
     <g id="text_15">
      <!-- 0.0175 -->
      <g transform="translate(20.878125 89.245131) scale(0.1 -0.1)">
       <use xlink:href="#DejaVuSans-30"/>
       <use xlink:href="#DejaVuSans-2e" x="63.623047"/>
       <use xlink:href="#DejaVuSans-30" x="95.410156"/>
       <use xlink:href="#DejaVuSans-31" x="159.033203"/>
       <use xlink:href="#DejaVuSans-37" x="222.65625"/>
       <use xlink:href="#DejaVuSans-35" x="286.279297"/>
      </g>
     </g>
    </g>
    <g id="ytick_8">
     <g id="line2d_15">
      <g>
       <use xlink:href="#mc1b5fe0fc9" x="62.86875" y="63.768327" style="stroke: #000000; stroke-width: 0.8"/>
      </g>
     </g>
     <g id="text_16">
      <!-- 0.0200 -->
      <g transform="translate(20.878125 67.567546) scale(0.1 -0.1)">
       <use xlink:href="#DejaVuSans-30"/>
       <use xlink:href="#DejaVuSans-2e" x="63.623047"/>
       <use xlink:href="#DejaVuSans-30" x="95.410156"/>
       <use xlink:href="#DejaVuSans-32" x="159.033203"/>
       <use xlink:href="#DejaVuSans-30" x="222.65625"/>
       <use xlink:href="#DejaVuSans-30" x="286.279297"/>
      </g>
     </g>
    </g>
    <g id="ytick_9">
     <g id="line2d_16">
      <g>
       <use xlink:href="#mc1b5fe0fc9" x="62.86875" y="42.090743" style="stroke: #000000; stroke-width: 0.8"/>
      </g>
     </g>
     <g id="text_17">
      <!-- 0.0225 -->
      <g transform="translate(20.878125 45.889961) scale(0.1 -0.1)">
       <use xlink:href="#DejaVuSans-30"/>
       <use xlink:href="#DejaVuSans-2e" x="63.623047"/>
       <use xlink:href="#DejaVuSans-30" x="95.410156"/>
       <use xlink:href="#DejaVuSans-32" x="159.033203"/>
       <use xlink:href="#DejaVuSans-32" x="222.65625"/>
       <use xlink:href="#DejaVuSans-35" x="286.279297"/>
      </g>
     </g>
    </g>
    <g id="text_18">
     <!-- Hauteur finale h(r) -->
     <g transform="translate(14.798438 175.825469) rotate(-90) scale(0.1 -0.1)">
      <defs>
       <path id="DejaVuSans-48" d="M 628 4666 
L 1259 4666 
L 1259 2753 
L 3553 2753 
L 3553 4666 
L 4184 4666 
L 4184 0 
L 3553 0 
L 3553 2222 
L 1259 2222 
L 1259 0 
L 628 0 
L 628 4666 
z
" transform="scale(0.015625)"/>
       <path id="DejaVuSans-61" d="M 2194 1759 
Q 1497 1759 1228 1600 
Q 959 1441 959 1056 
Q 959 750 1161 570 
Q 1363 391 1709 391 
Q 2188 391 2477 730 
Q 2766 1069 2766 1631 
L 2766 1759 
L 2194 1759 
z
M 3341 1997 
L 3341 0 
L 2766 0 
L 2766 531 
Q 2569 213 2275 61 
Q 1981 -91 1556 -91 
Q 1019 -91 701 211 
Q 384 513 384 1019 
Q 384 1609 779 1909 
Q 1175 2209 1959 2209 
L 2766 2209 
L 2766 2266 
Q 2766 2663 2505 2880 
Q 2244 3097 1772 3097 
Q 1472 3097 1187 3025 
Q 903 2953 641 2809 
L 641 3341 
Q 956 3463 1253 3523 
Q 1550 3584 1831 3584 
Q 2591 3584 2966 3190 
Q 3341 2797 3341 1997 
z
" transform="scale(0.015625)"/>
       <path id="DejaVuSans-75" d="M 544 1381 
L 544 3500 
L 1119 3500 
L 1119 1403 
Q 1119 906 1312 657 
Q 1506 409 1894 409 
Q 2359 409 2629 706 
Q 2900 1003 2900 1516 
L 2900 3500 
L 3475 3500 
L 3475 0 
L 2900 0 
L 2900 538 
Q 2691 219 2414 64 
Q 2138 -91 1772 -91 
Q 1169 -91 856 284 
Q 544 659 544 1381 
z
M 1991 3584 
L 1991 3584 
z
" transform="scale(0.015625)"/>
       <path id="DejaVuSans-74" d="M 1172 4494 
L 1172 3500 
L 2356 3500 
L 2356 3053 
L 1172 3053 
L 1172 1153 
Q 1172 725 1289 603 
Q 1406 481 1766 481 
L 2356 481 
L 2356 0 
L 1766 0 
Q 1100 0 847 248 
Q 594 497 594 1153 
L 594 3053 
L 172 3053 
L 172 3500 
L 594 3500 
L 594 4494 
L 1172 4494 
z
" transform="scale(0.015625)"/>
       <path id="DejaVuSans-65" d="M 3597 1894 
L 3597 1613 
L 953 1613 
Q 991 1019 1311 708 
Q 1631 397 2203 397 
Q 2534 397 2845 478 
Q 3156 559 3463 722 
L 3463 178 
Q 3153 47 2828 -22 
Q 2503 -91 2169 -91 
Q 1331 -91 842 396 
Q 353 884 353 1716 
Q 353 2575 817 3079 
Q 1281 3584 2069 3584 
Q 2775 3584 3186 3129 
Q 3597 2675 3597 1894 
z
M 3022 2063 
Q 3016 2534 2758 2815 
Q 2500 3097 2075 3097 
Q 1594 3097 1305 2825 
Q 1016 2553 972 2059 
L 3022 2063 
z
" transform="scale(0.015625)"/>
       <path id="DejaVuSans-66" d="M 2375 4863 
L 2375 4384 
L 1825 4384 
Q 1516 4384 1395 4259 
Q 1275 4134 1275 3809 
L 1275 3500 
L 2222 3500 
L 2222 3053 
L 1275 3053 
L 1275 0 
L 697 0 
L 697 3053 
L 147 3053 
L 147 3500 
L 697 3500 
L 697 3744 
Q 697 4328 969 4595 
Q 1241 4863 1831 4863 
L 2375 4863 
z
" transform="scale(0.015625)"/>
       <path id="DejaVuSans-69" d="M 603 3500 
L 1178 3500 
L 1178 0 
L 603 0 
L 603 3500 
z
M 603 4863 
L 1178 4863 
L 1178 4134 
L 603 4134 
L 603 4863 
z
" transform="scale(0.015625)"/>
       <path id="DejaVuSans-6e" d="M 3513 2113 
L 3513 0 
L 2938 0 
L 2938 2094 
Q 2938 2591 2744 2837 
Q 2550 3084 2163 3084 
Q 1697 3084 1428 2787 
Q 1159 2491 1159 1978 
L 1159 0 
L 581 0 
L 581 3500 
L 1159 3500 
L 1159 2956 
Q 1366 3272 1645 3428 
Q 1925 3584 2291 3584 
Q 2894 3584 3203 3211 
Q 3513 2838 3513 2113 
z
" transform="scale(0.015625)"/>
       <path id="DejaVuSans-6c" d="M 603 4863 
L 1178 4863 
L 1178 0 
L 603 0 
L 603 4863 
z
" transform="scale(0.015625)"/>
       <path id="DejaVuSans-68" d="M 3513 2113 
L 3513 0 
L 2938 0 
L 2938 2094 
Q 2938 2591 2744 2837 
Q 2550 3084 2163 3084 
Q 1697 3084 1428 2787 
Q 1159 2491 1159 1978 
L 1159 0 
L 581 0 
L 581 4863 
L 1159 4863 
L 1159 2956 
Q 1366 3272 1645 3428 
Q 1925 3584 2291 3584 
Q 2894 3584 3203 3211 
Q 3513 2838 3513 2113 
z
" transform="scale(0.015625)"/>
      </defs>
      <use xlink:href="#DejaVuSans-48"/>
      <use xlink:href="#DejaVuSans-61" x="75.195312"/>
      <use xlink:href="#DejaVuSans-75" x="136.474609"/>
      <use xlink:href="#DejaVuSans-74" x="199.853516"/>
      <use xlink:href="#DejaVuSans-65" x="239.0625"/>
      <use xlink:href="#DejaVuSans-75" x="300.585938"/>
      <use xlink:href="#DejaVuSans-72" x="363.964844"/>
      <use xlink:href="#DejaVuSans-20" x="405.078125"/>
      <use xlink:href="#DejaVuSans-66" x="436.865234"/>
      <use xlink:href="#DejaVuSans-69" x="472.070312"/>
      <use xlink:href="#DejaVuSans-6e" x="499.853516"/>
      <use xlink:href="#DejaVuSans-61" x="563.232422"/>
      <use xlink:href="#DejaVuSans-6c" x="624.511719"/>
      <use xlink:href="#DejaVuSans-65" x="652.294922"/>
      <use xlink:href="#DejaVuSans-20" x="713.818359"/>
      <use xlink:href="#DejaVuSans-68" x="745.605469"/>
      <use xlink:href="#DejaVuSans-28" x="808.984375"/>
      <use xlink:href="#DejaVuSans-72" x="847.998047"/>
      <use xlink:href="#DejaVuSans-29" x="889.111328"/>
     </g>
    </g>
   </g>
   <g id="line2d_17">
    <path d="M 74.397676 63.768327 
L 75.556362 82.358185 
L 76.715048 97.395654 
L 77.873734 109.802121 
L 79.03242 120.207451 
L 80.191106 129.056369 
L 81.349792 136.67157 
L 82.508478 143.292728 
L 83.667164 149.101487 
L 84.82585 154.23796 
L 85.984536 158.811919 
L 88.301908 166.604007 
L 90.61928 172.993216 
L 92.936651 178.325981 
L 95.254023 182.843605 
L 97.571395 186.719257 
L 99.888767 190.080395 
L 102.206139 193.022888 
L 104.523511 195.620219 
L 106.840883 197.929653 
L 109.158255 199.996466 
L 112.634313 202.719182 
L 116.110371 205.071033 
L 119.586429 207.122877 
L 123.062487 208.928618 
L 126.538545 210.529985 
L 131.173289 212.402939 
L 135.808033 214.030217 
L 140.442777 215.432049 
L 141.601463 215.610104 
L 142.760149 214.979969 
L 143.918835 211.017713 
L 145.077521 198.476228 
L 146.236207 171.001225 
L 148.553579 83.884136 
L 149.712265 57.337311 
L 150.870951 48.143617 
L 152.029637 46.446413 
L 153.188323 46.733908 
L 155.505695 48.218039 
L 160.140439 51.257525 
L 164.775183 54.06943 
L 170.568613 57.293272 
L 176.362043 60.231138 
L 182.155473 62.916884 
L 187.948903 65.379049 
L 194.901019 68.072351 
L 201.853135 70.51354 
L 208.805251 72.731787 
L 216.916053 75.070096 
L 225.026855 77.169464 
L 233.137657 79.05619 
L 242.407144 80.989496 
L 258.628748 84.084711 
L 270.215608 86.1548 
L 280.643782 87.780967 
L 292.230642 89.351683 
L 303.817502 90.704374 
L 304.976188 90.704374 
L 304.976188 90.704374 
" clip-path="url(#p9e11b88f20)" style="fill: none; stroke: #1f77b4; stroke-width: 1.5; stroke-linecap: square"/>
   </g>
   <g id="line2d_18">
    <path d="M 74.397676 63.768327 
L 75.556362 84.152073 
L 76.715048 100.180858 
L 77.873734 113.134278 
L 79.03242 123.829069 
L 80.191106 132.813451 
L 81.349792 140.470111 
L 82.508478 147.074759 
L 83.667164 152.831299 
L 84.82585 157.893895 
L 85.984536 162.381336 
L 87.143222 166.386668 
L 89.460594 173.232356 
L 91.777965 178.868672 
L 94.095337 183.590584 
L 96.412709 187.604213 
L 98.730081 191.057982 
L 101.047453 194.061508 
L 103.364825 196.697522 
L 105.682197 199.029636 
L 107.999569 201.107576 
L 110.316941 202.970772 
L 113.792999 205.430536 
L 117.269057 207.560235 
L 120.745115 209.422151 
L 124.221173 211.063819 
L 128.855917 212.972729 
L 133.490661 214.62161 
L 138.125405 216.060217 
L 143.918835 217.619441 
L 145.077521 214.104462 
L 146.236207 44.305138 
L 147.394893 41.22 
L 152.029637 45.233471 
L 156.664381 48.882353 
L 161.299125 52.192049 
L 165.933869 55.194732 
L 170.568613 57.927612 
L 176.362043 61.030747 
L 182.155473 63.868721 
L 189.107589 67.015964 
L 194.901019 69.386432 
L 198.377077 70.608701 
L 201.853135 71.624555 
L 206.487879 72.722358 
L 212.281309 74.115676 
L 216.916053 75.50771 
L 223.868169 77.62753 
L 228.502913 78.755359 
L 240.089772 81.16271 
L 266.73955 86.50861 
L 274.850352 87.838415 
L 285.278526 89.329256 
L 296.865386 90.760915 
L 303.817502 91.516901 
L 304.976188 91.516901 
L 304.976188 91.516901 
" clip-path="url(#p9e11b88f20)" style="fill: none; stroke-dasharray: 5.55,2.4; stroke-dashoffset: 0; stroke: #ff7f0e; stroke-width: 1.5"/>
   </g>
   <g id="line2d_19">
    <path d="M 74.397676 63.768327 
L 75.556362 84.153817 
L 76.715048 100.183211 
L 77.873734 113.136799 
L 79.03242 123.831576 
L 80.191106 132.81587 
L 81.349792 140.472413 
L 82.508478 147.076938 
L 83.667164 152.833357 
L 84.82585 157.89584 
L 85.984536 162.383175 
L 87.143222 166.388411 
L 89.460594 173.233929 
L 91.777965 178.870102 
L 94.095337 183.591894 
L 96.412709 187.60542 
L 98.730081 191.059101 
L 101.047453 194.062551 
L 103.364825 196.698497 
L 105.682197 199.030553 
L 107.999569 201.108441 
L 110.316941 202.97159 
L 113.792999 205.431293 
L 117.269057 207.560939 
L 120.745115 209.422809 
L 124.221173 211.064437 
L 128.855917 212.9733 
L 133.490661 214.622141 
L 138.125405 216.060713 
L 143.918835 217.62 
L 145.077521 196.055695 
L 146.236207 85.788832 
L 147.394893 45.150718 
L 148.553579 44.202279 
L 153.188323 47.681312 
L 157.823067 50.840823 
L 162.457811 53.676863 
L 168.251241 56.872882 
L 175.203357 60.469682 
L 180.996787 63.216898 
L 186.790217 65.670899 
L 193.742333 68.320874 
L 201.853135 71.183568 
L 209.963937 73.811581 
L 216.916053 75.810144 
L 225.026855 77.857161 
L 235.455028 80.225847 
L 250.517946 83.519269 
L 267.898236 87.740265 
L 274.850352 88.92063 
L 285.278526 90.413328 
L 296.865386 91.844957 
L 303.817502 92.602174 
L 304.976188 92.602174 
L 304.976188 92.602174 
" clip-path="url(#p9e11b88f20)" style="fill: none; stroke-dasharray: 9.6,2.4,1.5,2.4; stroke-dashoffset: 0; stroke: #2ca02c; stroke-width: 1.5"/>
   </g>
   <g id="line2d_20">
    <path d="M 74.397676 63.768327 
L 75.556362 84.153817 
L 76.715048 100.183211 
L 77.873734 113.136799 
L 79.03242 123.831576 
L 80.191106 132.81587 
L 81.349792 140.472413 
L 82.508478 147.076938 
L 83.667164 152.833357 
L 84.82585 157.89584 
L 85.984536 162.383175 
L 87.143222 166.388411 
L 89.460594 173.233929 
L 91.777965 178.870102 
L 94.095337 183.591894 
L 96.412709 187.60542 
L 98.730081 191.059101 
L 101.047453 194.062551 
L 103.364825 196.698497 
L 105.682197 199.030553 
L 107.999569 201.108441 
L 110.316941 202.97159 
L 113.792999 205.431293 
L 117.269057 207.560939 
L 120.745115 209.422809 
L 124.221173 211.064437 
L 128.855917 212.9733 
L 133.490661 214.622141 
L 138.125405 216.060713 
L 143.918835 217.62 
L 145.077521 196.055695 
L 146.236207 85.788832 
L 147.394893 45.150718 
L 148.553579 44.202279 
L 153.188323 47.681312 
L 157.823067 50.840823 
L 162.457811 53.676863 
L 168.251241 56.872882 
L 175.203357 60.469682 
L 180.996787 63.216898 
L 186.790217 65.670899 
L 193.742333 68.320874 
L 201.853135 71.183568 
L 209.963937 73.811581 
L 216.916053 75.810144 
L 225.026855 77.857161 
L 235.455028 80.225847 
L 250.517946 83.519269 
L 267.898236 87.740265 
L 274.850352 88.92063 
L 285.278526 90.413328 
L 296.865386 91.844957 
L 303.817502 92.602174 
L 304.976188 92.602174 
L 304.976188 92.602174 
" clip-path="url(#p9e11b88f20)" style="fill: none; stroke-dasharray: 9.6,2.4,1.5,2.4; stroke-dashoffset: 0; stroke: #d62728; stroke-width: 1.5"/>
   </g>
   <g id="line2d_21">
    <path d="M 74.397676 63.768327 
L 75.556362 75.922408 
L 76.715048 92.258806 
L 77.873734 106.546453 
L 79.03242 118.307273 
L 80.191106 128.149778 
L 81.349792 136.503378 
L 82.508478 143.679265 
L 83.667164 149.908193 
L 84.82585 155.364732 
L 85.984536 160.183281 
L 87.143222 164.468939 
L 89.460594 171.758465 
L 91.777965 177.724771 
L 94.095337 182.697087 
L 96.412709 186.90407 
L 98.730081 190.509404 
L 101.047453 193.633292 
L 103.364825 196.365956 
L 105.682197 198.776472 
L 107.999569 200.918575 
L 110.316941 202.834586 
L 113.792999 205.357367 
L 117.269057 207.535251 
L 120.745115 209.434388 
L 124.221173 211.104847 
L 128.855917 213.047331 
L 135.808033 215.655547 
L 136.966719 215.94572 
L 138.125405 215.898576 
L 139.284091 211.727207 
L 140.442777 189.584633 
L 142.760149 67.554057 
L 143.918835 46.111554 
L 145.077521 43.106525 
L 146.236207 43.392383 
L 147.394893 44.245118 
L 148.553579 45.408634 
L 150.870951 47.191137 
L 154.347009 49.459137 
L 160.140439 53.149767 
L 163.616497 55.480274 
L 167.092555 57.59116 
L 171.727299 60.151724 
L 177.520729 63.095347 
L 182.155473 65.213818 
L 193.742333 70.135442 
L 198.377077 71.770323 
L 205.329193 73.87329 
L 211.122623 75.624102 
L 215.757367 77.17915 
L 220.392111 78.420659 
L 234.296343 81.63849 
L 242.407144 83.284578 
L 263.263492 87.334239 
L 267.898236 88.256531 
L 277.167724 89.658127 
L 287.595898 91.08227 
L 300.341444 92.572393 
L 304.976188 92.985842 
L 304.976188 92.985842 
" clip-path="url(#p9e11b88f20)" style="fill: none; stroke-dasharray: 1.5,2.475; stroke-dashoffset: 0; stroke: #9467bd; stroke-opacity: 0.5; stroke-width: 1.5"/>
   </g>
   <g id="patch_3">
    <path d="M 62.86875 226.44 
L 62.86875 32.4 
" style="fill: none; stroke: #000000; stroke-width: 0.8; stroke-linejoin: miter; stroke-linecap: square"/>
   </g>
   <g id="patch_4">
    <path d="M 316.505114 226.44 
L 316.505114 32.4 
" style="fill: none; stroke: #000000; stroke-width: 0.8; stroke-linejoin: miter; stroke-linecap: square"/>
   </g>
   <g id="patch_5">
    <path d="M 62.86875 226.44 
L 316.505114 226.44 
" style="fill: none; stroke: #000000; stroke-width: 0.8; stroke-linejoin: miter; stroke-linecap: square"/>
   </g>
   <g id="patch_6">
    <path d="M 62.86875 32.4 
L 316.505114 32.4 
" style="fill: none; stroke: #000000; stroke-width: 0.8; stroke-linejoin: miter; stroke-linecap: square"/>
   </g>
   <g id="legend_1">
    <g id="patch_7">
     <path d="M 234.956676 221.44 
L 309.505114 221.44 
Q 311.505114 221.44 311.505114 219.44 
L 311.505114 147.049375 
Q 311.505114 145.049375 309.505114 145.049375 
L 234.956676 145.049375 
Q 232.956676 145.049375 232.956676 147.049375 
L 232.956676 219.44 
Q 232.956676 221.44 234.956676 221.44 
z
" style="fill: #ffffff; opacity: 0.8; stroke: #cccccc; stroke-linejoin: miter"/>
    </g>
    <g id="line2d_22">
     <path d="M 236.956676 153.147812 
L 246.956676 153.147812 
L 256.956676 153.147812 
" style="fill: none; stroke: #1f77b4; stroke-width: 1.5; stroke-linecap: square"/>
    </g>
    <g id="text_19">
     <!-- Rusanov -->
     <g transform="translate(264.956676 156.647812) scale(0.1 -0.1)">
      <defs>
       <path id="DejaVuSans-52" d="M 2841 2188 
Q 3044 2119 3236 1894 
Q 3428 1669 3622 1275 
L 4263 0 
L 3584 0 
L 2988 1197 
Q 2756 1666 2539 1819 
Q 2322 1972 1947 1972 
L 1259 1972 
L 1259 0 
L 628 0 
L 628 4666 
L 2053 4666 
Q 2853 4666 3247 4331 
Q 3641 3997 3641 3322 
Q 3641 2881 3436 2590 
Q 3231 2300 2841 2188 
z
M 1259 4147 
L 1259 2491 
L 2053 2491 
Q 2509 2491 2742 2702 
Q 2975 2913 2975 3322 
Q 2975 3731 2742 3939 
Q 2509 4147 2053 4147 
L 1259 4147 
z
" transform="scale(0.015625)"/>
       <path id="DejaVuSans-73" d="M 2834 3397 
L 2834 2853 
Q 2591 2978 2328 3040 
Q 2066 3103 1784 3103 
Q 1356 3103 1142 2972 
Q 928 2841 928 2578 
Q 928 2378 1081 2264 
Q 1234 2150 1697 2047 
L 1894 2003 
Q 2506 1872 2764 1633 
Q 3022 1394 3022 966 
Q 3022 478 2636 193 
Q 2250 -91 1575 -91 
Q 1294 -91 989 -36 
Q 684 19 347 128 
L 347 722 
Q 666 556 975 473 
Q 1284 391 1588 391 
Q 1994 391 2212 530 
Q 2431 669 2431 922 
Q 2431 1156 2273 1281 
Q 2116 1406 1581 1522 
L 1381 1569 
Q 847 1681 609 1914 
Q 372 2147 372 2553 
Q 372 3047 722 3315 
Q 1072 3584 1716 3584 
Q 2034 3584 2315 3537 
Q 2597 3491 2834 3397 
z
" transform="scale(0.015625)"/>
       <path id="DejaVuSans-6f" d="M 1959 3097 
Q 1497 3097 1228 2736 
Q 959 2375 959 1747 
Q 959 1119 1226 758 
Q 1494 397 1959 397 
Q 2419 397 2687 759 
Q 2956 1122 2956 1747 
Q 2956 2369 2687 2733 
Q 2419 3097 1959 3097 
z
M 1959 3584 
Q 2709 3584 3137 3096 
Q 3566 2609 3566 1747 
Q 3566 888 3137 398 
Q 2709 -91 1959 -91 
Q 1206 -91 779 398 
Q 353 888 353 1747 
Q 353 2609 779 3096 
Q 1206 3584 1959 3584 
z
" transform="scale(0.015625)"/>
       <path id="DejaVuSans-76" d="M 191 3500 
L 800 3500 
L 1894 563 
L 2988 3500 
L 3597 3500 
L 2284 0 
L 1503 0 
L 191 3500 
z
" transform="scale(0.015625)"/>
      </defs>
      <use xlink:href="#DejaVuSans-52"/>
      <use xlink:href="#DejaVuSans-75" x="64.982422"/>
      <use xlink:href="#DejaVuSans-73" x="128.361328"/>
      <use xlink:href="#DejaVuSans-61" x="180.460938"/>
      <use xlink:href="#DejaVuSans-6e" x="241.740234"/>
      <use xlink:href="#DejaVuSans-6f" x="305.119141"/>
      <use xlink:href="#DejaVuSans-76" x="366.300781"/>
     </g>
    </g>
    <g id="line2d_23">
     <path d="M 236.956676 167.825937 
L 246.956676 167.825937 
L 256.956676 167.825937 
" style="fill: none; stroke-dasharray: 5.55,2.4; stroke-dashoffset: 0; stroke: #ff7f0e; stroke-width: 1.5"/>
    </g>
    <g id="text_20">
     <!-- Roe -->
     <g transform="translate(264.956676 171.325937) scale(0.1 -0.1)">
      <use xlink:href="#DejaVuSans-52"/>
      <use xlink:href="#DejaVuSans-6f" x="64.982422"/>
      <use xlink:href="#DejaVuSans-65" x="126.164062"/>
     </g>
    </g>
    <g id="line2d_24">
     <path d="M 236.956676 182.504062 
L 246.956676 182.504062 
L 256.956676 182.504062 
" style="fill: none; stroke-dasharray: 9.6,2.4,1.5,2.4; stroke-dashoffset: 0; stroke: #2ca02c; stroke-width: 1.5"/>
    </g>
    <g id="text_21">
     <!-- HLL -->
     <g transform="translate(264.956676 186.004062) scale(0.1 -0.1)">
      <defs>
       <path id="DejaVuSans-4c" d="M 628 4666 
L 1259 4666 
L 1259 531 
L 3531 531 
L 3531 0 
L 628 0 
L 628 4666 
z
" transform="scale(0.015625)"/>
      </defs>
      <use xlink:href="#DejaVuSans-48"/>
      <use xlink:href="#DejaVuSans-4c" x="75.195312"/>
      <use xlink:href="#DejaVuSans-4c" x="130.908203"/>
     </g>
    </g>
    <g id="line2d_25">
     <path d="M 236.956676 197.182187 
L 246.956676 197.182187 
L 256.956676 197.182187 
" style="fill: none; stroke-dasharray: 9.6,2.4,1.5,2.4; stroke-dashoffset: 0; stroke: #d62728; stroke-width: 1.5"/>
    </g>
    <g id="text_22">
     <!-- HLLC -->
     <g transform="translate(264.956676 200.682187) scale(0.1 -0.1)">
      <defs>
       <path id="DejaVuSans-43" d="M 4122 4306 
L 4122 3641 
Q 3803 3938 3442 4084 
Q 3081 4231 2675 4231 
Q 1875 4231 1450 3742 
Q 1025 3253 1025 2328 
Q 1025 1406 1450 917 
Q 1875 428 2675 428 
Q 3081 428 3442 575 
Q 3803 722 4122 1019 
L 4122 359 
Q 3791 134 3420 21 
Q 3050 -91 2638 -91 
Q 1578 -91 968 557 
Q 359 1206 359 2328 
Q 359 3453 968 4101 
Q 1578 4750 2638 4750 
Q 3056 4750 3426 4639 
Q 3797 4528 4122 4306 
z
" transform="scale(0.015625)"/>
      </defs>
      <use xlink:href="#DejaVuSans-48"/>
      <use xlink:href="#DejaVuSans-4c" x="75.195312"/>
      <use xlink:href="#DejaVuSans-4c" x="130.908203"/>
      <use xlink:href="#DejaVuSans-43" x="186.621094"/>
     </g>
    </g>
    <g id="line2d_26">
     <path d="M 236.956676 211.860312 
L 246.956676 211.860312 
L 256.956676 211.860312 
" style="fill: none; stroke-dasharray: 1.5,2.475; stroke-dashoffset: 0; stroke: #9467bd; stroke-opacity: 0.5; stroke-width: 1.5"/>
    </g>
    <g id="text_23">
     <!-- MUSCL -->
     <g transform="translate(264.956676 215.360312) scale(0.1 -0.1)">
      <defs>
       <path id="DejaVuSans-4d" d="M 628 4666 
L 1569 4666 
L 2759 1491 
L 3956 4666 
L 4897 4666 
L 4897 0 
L 4281 0 
L 4281 4097 
L 3078 897 
L 2444 897 
L 1241 4097 
L 1241 0 
L 628 0 
L 628 4666 
z
" transform="scale(0.015625)"/>
       <path id="DejaVuSans-55" d="M 556 4666 
L 1191 4666 
L 1191 1831 
Q 1191 1081 1462 751 
Q 1734 422 2344 422 
Q 2950 422 3222 751 
Q 3494 1081 3494 1831 
L 3494 4666 
L 4128 4666 
L 4128 1753 
Q 4128 841 3676 375 
Q 3225 -91 2344 -91 
Q 1459 -91 1007 375 
Q 556 841 556 1753 
L 556 4666 
z
" transform="scale(0.015625)"/>
       <path id="DejaVuSans-53" d="M 3425 4513 
L 3425 3897 
Q 3066 4069 2747 4153 
Q 2428 4238 2131 4238 
Q 1616 4238 1336 4038 
Q 1056 3838 1056 3469 
Q 1056 3159 1242 3001 
Q 1428 2844 1947 2747 
L 2328 2669 
Q 3034 2534 3370 2195 
Q 3706 1856 3706 1288 
Q 3706 609 3251 259 
Q 2797 -91 1919 -91 
Q 1588 -91 1214 -16 
Q 841 59 441 206 
L 441 856 
Q 825 641 1194 531 
Q 1563 422 1919 422 
Q 2459 422 2753 634 
Q 3047 847 3047 1241 
Q 3047 1584 2836 1778 
Q 2625 1972 2144 2069 
L 1759 2144 
Q 1053 2284 737 2584 
Q 422 2884 422 3419 
Q 422 4038 858 4394 
Q 1294 4750 2059 4750 
Q 2388 4750 2728 4690 
Q 3069 4631 3425 4513 
z
" transform="scale(0.015625)"/>
      </defs>
      <use xlink:href="#DejaVuSans-4d"/>
      <use xlink:href="#DejaVuSans-55" x="86.279297"/>
      <use xlink:href="#DejaVuSans-53" x="159.472656"/>
      <use xlink:href="#DejaVuSans-43" x="222.949219"/>
      <use xlink:href="#DejaVuSans-4c" x="292.773438"/>
     </g>
    </g>
   </g>
  </g>
  <g id="axes_2">
   <g id="patch_8">
    <path d="M 367.232386 226.44 
L 620.86875 226.44 
L 620.86875 32.4 
L 367.232386 32.4 
z
" style="fill: #ffffff"/>
   </g>
   <g id="matplotlib.axis_3">
    <g id="xtick_8">
     <g id="line2d_27">
      <g>
       <use xlink:href="#m101acbfc31" x="372.466784" y="226.44" style="stroke: #000000; stroke-width: 0.8"/>
      </g>
     </g>
     <g id="text_24">
      <!-- 0.090 -->
      <g transform="translate(358.152721 241.038437) scale(0.1 -0.1)">
       <defs>
        <path id="DejaVuSans-39" d="M 703 97 
L 703 672 
Q 941 559 1184 500 
Q 1428 441 1663 441 
Q 2288 441 2617 861 
Q 2947 1281 2994 2138 
Q 2813 1869 2534 1725 
Q 2256 1581 1919 1581 
Q 1219 1581 811 2004 
Q 403 2428 403 3163 
Q 403 3881 828 4315 
Q 1253 4750 1959 4750 
Q 2769 4750 3195 4129 
Q 3622 3509 3622 2328 
Q 3622 1225 3098 567 
Q 2575 -91 1691 -91 
Q 1453 -91 1209 -44 
Q 966 3 703 97 
z
M 1959 2075 
Q 2384 2075 2632 2365 
Q 2881 2656 2881 3163 
Q 2881 3666 2632 3958 
Q 2384 4250 1959 4250 
Q 1534 4250 1286 3958 
Q 1038 3666 1038 3163 
Q 1038 2656 1286 2365 
Q 1534 2075 1959 2075 
z
" transform="scale(0.015625)"/>
       </defs>
       <use xlink:href="#DejaVuSans-30"/>
       <use xlink:href="#DejaVuSans-2e" x="63.623047"/>
       <use xlink:href="#DejaVuSans-30" x="95.410156"/>
       <use xlink:href="#DejaVuSans-39" x="159.033203"/>
       <use xlink:href="#DejaVuSans-30" x="222.65625"/>
      </g>
     </g>
    </g>
    <g id="xtick_9">
     <g id="line2d_28">
      <g>
       <use xlink:href="#m101acbfc31" x="405.59588" y="226.44" style="stroke: #000000; stroke-width: 0.8"/>
      </g>
     </g>
     <g id="text_25">
      <!-- 0.093 -->
      <g transform="translate(391.281818 241.038437) scale(0.1 -0.1)">
       <use xlink:href="#DejaVuSans-30"/>
       <use xlink:href="#DejaVuSans-2e" x="63.623047"/>
       <use xlink:href="#DejaVuSans-30" x="95.410156"/>
       <use xlink:href="#DejaVuSans-39" x="159.033203"/>
       <use xlink:href="#DejaVuSans-33" x="222.65625"/>
      </g>
     </g>
    </g>
    <g id="xtick_10">
     <g id="line2d_29">
      <g>
       <use xlink:href="#m101acbfc31" x="438.724977" y="226.44" style="stroke: #000000; stroke-width: 0.8"/>
      </g>
     </g>
     <g id="text_26">
      <!-- 0.095 -->
      <g transform="translate(424.410914 241.038437) scale(0.1 -0.1)">
       <use xlink:href="#DejaVuSans-30"/>
       <use xlink:href="#DejaVuSans-2e" x="63.623047"/>
       <use xlink:href="#DejaVuSans-30" x="95.410156"/>
       <use xlink:href="#DejaVuSans-39" x="159.033203"/>
       <use xlink:href="#DejaVuSans-35" x="222.65625"/>
      </g>
     </g>
    </g>
    <g id="xtick_11">
     <g id="line2d_30">
      <g>
       <use xlink:href="#m101acbfc31" x="471.854073" y="226.44" style="stroke: #000000; stroke-width: 0.8"/>
      </g>
     </g>
     <g id="text_27">
      <!-- 0.098 -->
      <g transform="translate(457.540011 241.038437) scale(0.1 -0.1)">
       <defs>
        <path id="DejaVuSans-38" d="M 2034 2216 
Q 1584 2216 1326 1975 
Q 1069 1734 1069 1313 
Q 1069 891 1326 650 
Q 1584 409 2034 409 
Q 2484 409 2743 651 
Q 3003 894 3003 1313 
Q 3003 1734 2745 1975 
Q 2488 2216 2034 2216 
z
M 1403 2484 
Q 997 2584 770 2862 
Q 544 3141 544 3541 
Q 544 4100 942 4425 
Q 1341 4750 2034 4750 
Q 2731 4750 3128 4425 
Q 3525 4100 3525 3541 
Q 3525 3141 3298 2862 
Q 3072 2584 2669 2484 
Q 3125 2378 3379 2068 
Q 3634 1759 3634 1313 
Q 3634 634 3220 271 
Q 2806 -91 2034 -91 
Q 1263 -91 848 271 
Q 434 634 434 1313 
Q 434 1759 690 2068 
Q 947 2378 1403 2484 
z
M 1172 3481 
Q 1172 3119 1398 2916 
Q 1625 2713 2034 2713 
Q 2441 2713 2670 2916 
Q 2900 3119 2900 3481 
Q 2900 3844 2670 4047 
Q 2441 4250 2034 4250 
Q 1625 4250 1398 4047 
Q 1172 3844 1172 3481 
z
" transform="scale(0.015625)"/>
       </defs>
       <use xlink:href="#DejaVuSans-30"/>
       <use xlink:href="#DejaVuSans-2e" x="63.623047"/>
       <use xlink:href="#DejaVuSans-30" x="95.410156"/>
       <use xlink:href="#DejaVuSans-39" x="159.033203"/>
       <use xlink:href="#DejaVuSans-38" x="222.65625"/>
      </g>
     </g>
    </g>
    <g id="xtick_12">
     <g id="line2d_31">
      <g>
       <use xlink:href="#m101acbfc31" x="504.98317" y="226.44" style="stroke: #000000; stroke-width: 0.8"/>
      </g>
     </g>
     <g id="text_28">
      <!-- 0.100 -->
      <g transform="translate(490.669108 241.038437) scale(0.1 -0.1)">
       <use xlink:href="#DejaVuSans-30"/>
       <use xlink:href="#DejaVuSans-2e" x="63.623047"/>
       <use xlink:href="#DejaVuSans-31" x="95.410156"/>
       <use xlink:href="#DejaVuSans-30" x="159.033203"/>
       <use xlink:href="#DejaVuSans-30" x="222.65625"/>
      </g>
     </g>
    </g>
    <g id="xtick_13">
     <g id="line2d_32">
      <g>
       <use xlink:href="#m101acbfc31" x="538.112267" y="226.44" style="stroke: #000000; stroke-width: 0.8"/>
      </g>
     </g>
     <g id="text_29">
      <!-- 0.103 -->
      <g transform="translate(523.798204 241.038437) scale(0.1 -0.1)">
       <use xlink:href="#DejaVuSans-30"/>
       <use xlink:href="#DejaVuSans-2e" x="63.623047"/>
       <use xlink:href="#DejaVuSans-31" x="95.410156"/>
       <use xlink:href="#DejaVuSans-30" x="159.033203"/>
       <use xlink:href="#DejaVuSans-33" x="222.65625"/>
      </g>
     </g>
    </g>
    <g id="xtick_14">
     <g id="line2d_33">
      <g>
       <use xlink:href="#m101acbfc31" x="571.241363" y="226.44" style="stroke: #000000; stroke-width: 0.8"/>
      </g>
     </g>
     <g id="text_30">
      <!-- 0.105 -->
      <g transform="translate(556.927301 241.038437) scale(0.1 -0.1)">
       <use xlink:href="#DejaVuSans-30"/>
       <use xlink:href="#DejaVuSans-2e" x="63.623047"/>
       <use xlink:href="#DejaVuSans-31" x="95.410156"/>
       <use xlink:href="#DejaVuSans-30" x="159.033203"/>
       <use xlink:href="#DejaVuSans-35" x="222.65625"/>
      </g>
     </g>
    </g>
    <g id="xtick_15">
     <g id="line2d_34">
      <g>
       <use xlink:href="#m101acbfc31" x="604.37046" y="226.44" style="stroke: #000000; stroke-width: 0.8"/>
      </g>
     </g>
     <g id="text_31">
      <!-- 0.108 -->
      <g transform="translate(590.056397 241.038437) scale(0.1 -0.1)">
       <use xlink:href="#DejaVuSans-30"/>
       <use xlink:href="#DejaVuSans-2e" x="63.623047"/>
       <use xlink:href="#DejaVuSans-31" x="95.410156"/>
       <use xlink:href="#DejaVuSans-30" x="159.033203"/>
       <use xlink:href="#DejaVuSans-38" x="222.65625"/>
      </g>
     </g>
    </g>
    <g id="text_32">
     <!-- r (m) -->
     <g transform="translate(481.634162 254.716562) scale(0.1 -0.1)">
      <use xlink:href="#DejaVuSans-72"/>
      <use xlink:href="#DejaVuSans-20" x="41.113281"/>
      <use xlink:href="#DejaVuSans-28" x="72.900391"/>
      <use xlink:href="#DejaVuSans-6d" x="111.914062"/>
      <use xlink:href="#DejaVuSans-29" x="209.326172"/>
     </g>
    </g>
   </g>
   <g id="matplotlib.axis_4">
    <g id="ytick_10">
     <g id="line2d_35">
      <g>
       <use xlink:href="#mc1b5fe0fc9" x="367.232386" y="215.511419" style="stroke: #000000; stroke-width: 0.8"/>
      </g>
     </g>
     <g id="text_33">
      <!-- 0.0025 -->
      <g transform="translate(325.241761 219.310638) scale(0.1 -0.1)">
       <use xlink:href="#DejaVuSans-30"/>
       <use xlink:href="#DejaVuSans-2e" x="63.623047"/>
       <use xlink:href="#DejaVuSans-30" x="95.410156"/>
       <use xlink:href="#DejaVuSans-30" x="159.033203"/>
       <use xlink:href="#DejaVuSans-32" x="222.65625"/>
       <use xlink:href="#DejaVuSans-35" x="286.279297"/>
      </g>
     </g>
    </g>
    <g id="ytick_11">
     <g id="line2d_36">
      <g>
       <use xlink:href="#mc1b5fe0fc9" x="367.232386" y="193.833834" style="stroke: #000000; stroke-width: 0.8"/>
      </g>
     </g>
     <g id="text_34">
      <!-- 0.0050 -->
      <g transform="translate(325.241761 197.633053) scale(0.1 -0.1)">
       <use xlink:href="#DejaVuSans-30"/>
       <use xlink:href="#DejaVuSans-2e" x="63.623047"/>
       <use xlink:href="#DejaVuSans-30" x="95.410156"/>
       <use xlink:href="#DejaVuSans-30" x="159.033203"/>
       <use xlink:href="#DejaVuSans-35" x="222.65625"/>
       <use xlink:href="#DejaVuSans-30" x="286.279297"/>
      </g>
     </g>
    </g>
    <g id="ytick_12">
     <g id="line2d_37">
      <g>
       <use xlink:href="#mc1b5fe0fc9" x="367.232386" y="172.15625" style="stroke: #000000; stroke-width: 0.8"/>
      </g>
     </g>
     <g id="text_35">
      <!-- 0.0075 -->
      <g transform="translate(325.241761 175.955469) scale(0.1 -0.1)">
       <use xlink:href="#DejaVuSans-30"/>
       <use xlink:href="#DejaVuSans-2e" x="63.623047"/>
       <use xlink:href="#DejaVuSans-30" x="95.410156"/>
       <use xlink:href="#DejaVuSans-30" x="159.033203"/>
       <use xlink:href="#DejaVuSans-37" x="222.65625"/>
       <use xlink:href="#DejaVuSans-35" x="286.279297"/>
      </g>
     </g>
    </g>
    <g id="ytick_13">
     <g id="line2d_38">
      <g>
       <use xlink:href="#mc1b5fe0fc9" x="367.232386" y="150.478665" style="stroke: #000000; stroke-width: 0.8"/>
      </g>
     </g>
     <g id="text_36">
      <!-- 0.0100 -->
      <g transform="translate(325.241761 154.277884) scale(0.1 -0.1)">
       <use xlink:href="#DejaVuSans-30"/>
       <use xlink:href="#DejaVuSans-2e" x="63.623047"/>
       <use xlink:href="#DejaVuSans-30" x="95.410156"/>
       <use xlink:href="#DejaVuSans-31" x="159.033203"/>
       <use xlink:href="#DejaVuSans-30" x="222.65625"/>
       <use xlink:href="#DejaVuSans-30" x="286.279297"/>
      </g>
     </g>
    </g>
    <g id="ytick_14">
     <g id="line2d_39">
      <g>
       <use xlink:href="#mc1b5fe0fc9" x="367.232386" y="128.801081" style="stroke: #000000; stroke-width: 0.8"/>
      </g>
     </g>
     <g id="text_37">
      <!-- 0.0125 -->
      <g transform="translate(325.241761 132.6003) scale(0.1 -0.1)">
       <use xlink:href="#DejaVuSans-30"/>
       <use xlink:href="#DejaVuSans-2e" x="63.623047"/>
       <use xlink:href="#DejaVuSans-30" x="95.410156"/>
       <use xlink:href="#DejaVuSans-31" x="159.033203"/>
       <use xlink:href="#DejaVuSans-32" x="222.65625"/>
       <use xlink:href="#DejaVuSans-35" x="286.279297"/>
      </g>
     </g>
    </g>
    <g id="ytick_15">
     <g id="line2d_40">
      <g>
       <use xlink:href="#mc1b5fe0fc9" x="367.232386" y="107.123496" style="stroke: #000000; stroke-width: 0.8"/>
      </g>
     </g>
     <g id="text_38">
      <!-- 0.0150 -->
      <g transform="translate(325.241761 110.922715) scale(0.1 -0.1)">
       <use xlink:href="#DejaVuSans-30"/>
       <use xlink:href="#DejaVuSans-2e" x="63.623047"/>
       <use xlink:href="#DejaVuSans-30" x="95.410156"/>
       <use xlink:href="#DejaVuSans-31" x="159.033203"/>
       <use xlink:href="#DejaVuSans-35" x="222.65625"/>
       <use xlink:href="#DejaVuSans-30" x="286.279297"/>
      </g>
     </g>
    </g>
    <g id="ytick_16">
     <g id="line2d_41">
      <g>
       <use xlink:href="#mc1b5fe0fc9" x="367.232386" y="85.445912" style="stroke: #000000; stroke-width: 0.8"/>
      </g>
     </g>
     <g id="text_39">
      <!-- 0.0175 -->
      <g transform="translate(325.241761 89.245131) scale(0.1 -0.1)">
       <use xlink:href="#DejaVuSans-30"/>
       <use xlink:href="#DejaVuSans-2e" x="63.623047"/>
       <use xlink:href="#DejaVuSans-30" x="95.410156"/>
       <use xlink:href="#DejaVuSans-31" x="159.033203"/>
       <use xlink:href="#DejaVuSans-37" x="222.65625"/>
       <use xlink:href="#DejaVuSans-35" x="286.279297"/>
      </g>
     </g>
    </g>
    <g id="ytick_17">
     <g id="line2d_42">
      <g>
       <use xlink:href="#mc1b5fe0fc9" x="367.232386" y="63.768327" style="stroke: #000000; stroke-width: 0.8"/>
      </g>
     </g>
     <g id="text_40">
      <!-- 0.0200 -->
      <g transform="translate(325.241761 67.567546) scale(0.1 -0.1)">
       <use xlink:href="#DejaVuSans-30"/>
       <use xlink:href="#DejaVuSans-2e" x="63.623047"/>
       <use xlink:href="#DejaVuSans-30" x="95.410156"/>
       <use xlink:href="#DejaVuSans-32" x="159.033203"/>
       <use xlink:href="#DejaVuSans-30" x="222.65625"/>
       <use xlink:href="#DejaVuSans-30" x="286.279297"/>
      </g>
     </g>
    </g>
    <g id="ytick_18">
     <g id="line2d_43">
      <g>
       <use xlink:href="#mc1b5fe0fc9" x="367.232386" y="42.090743" style="stroke: #000000; stroke-width: 0.8"/>
      </g>
     </g>
     <g id="text_41">
      <!-- 0.0225 -->
      <g transform="translate(325.241761 45.889961) scale(0.1 -0.1)">
       <use xlink:href="#DejaVuSans-30"/>
       <use xlink:href="#DejaVuSans-2e" x="63.623047"/>
       <use xlink:href="#DejaVuSans-30" x="95.410156"/>
       <use xlink:href="#DejaVuSans-32" x="159.033203"/>
       <use xlink:href="#DejaVuSans-32" x="222.65625"/>
       <use xlink:href="#DejaVuSans-35" x="286.279297"/>
      </g>
     </g>
    </g>
   </g>
   <g id="line2d_44">
    <path d="M 378.761312 214.765858 
L 397.976188 215.113628 
L 417.191064 215.432049 
L 436.40594 215.610104 
L 455.620816 214.979969 
L 474.835692 211.017713 
L 494.050568 198.476228 
L 513.265444 171.001225 
L 532.48032 127.893675 
L 551.695196 83.884136 
L 570.910072 57.337311 
L 590.124948 48.143617 
L 609.339824 46.446413 
" clip-path="url(#pb9b4d1f380)" style="fill: none; stroke: #1f77b4; stroke-width: 1.5; stroke-linecap: square"/>
   </g>
   <g id="line2d_45">
    <path d="M 378.761312 216.060217 
L 397.976188 216.391654 
L 417.191064 216.712851 
L 436.40594 217.024276 
L 455.620816 217.326369 
L 474.835692 217.619441 
L 494.050568 214.104462 
L 513.265444 44.305138 
L 532.48032 41.22 
L 551.695196 42.255454 
L 570.910072 43.272131 
L 590.124948 44.264628 
L 609.339824 45.233471 
" clip-path="url(#pb9b4d1f380)" style="fill: none; stroke-dasharray: 5.55,2.4; stroke-dashoffset: 0; stroke: #ff7f0e; stroke-width: 1.5"/>
   </g>
   <g id="line2d_46">
    <path d="M 378.761312 216.060713 
L 397.976188 216.392142 
L 417.191064 216.713332 
L 436.40594 217.024749 
L 455.620816 217.326834 
L 474.835692 217.62 
L 494.050568 181.712666 
L 513.265444 90.203303 
L 532.48032 49.481388 
L 551.695196 44.622106 
L 570.910072 45.427037 
L 590.124948 46.331429 
L 609.339824 47.209946 
" clip-path="url(#pb9b4d1f380)" style="fill: none; stroke-dasharray: 9.6,2.4,1.5,2.4; stroke-dashoffset: 0; stroke: #2ca02c; stroke-width: 1.5"/>
   </g>
   <g id="line2d_47">
    <path d="M 378.761312 216.060713 
L 397.976188 216.392142 
L 417.191064 216.713332 
L 436.40594 217.024749 
L 455.620816 217.326834 
L 474.835692 217.62 
L 494.050568 196.055695 
L 513.265444 85.788832 
L 532.48032 45.150718 
L 551.695196 44.202279 
L 570.910072 45.098229 
L 590.124948 45.980038 
L 609.339824 46.840949 
" clip-path="url(#pb9b4d1f380)" style="fill: none; stroke-dasharray: 9.6,2.4,1.5,2.4; stroke-dashoffset: 0; stroke: #d62728; stroke-width: 1.5"/>
   </g>
   <g id="line2d_48">
    <path d="M 378.761312 215.898576 
L 397.976188 211.727207 
L 417.191064 189.584633 
L 436.40594 129.700066 
L 455.620816 67.554057 
L 474.835692 46.111554 
L 494.050568 43.106525 
L 513.265444 43.392383 
L 532.48032 44.245118 
L 551.695196 45.408634 
L 570.910072 46.351324 
L 590.124948 47.191137 
L 609.339824 47.977694 
" clip-path="url(#pb9b4d1f380)" style="fill: none; stroke-dasharray: 1.5,2.475; stroke-dashoffset: 0; stroke: #9467bd; stroke-width: 1.5"/>
   </g>
   <g id="patch_9">
    <path d="M 367.232386 226.44 
L 367.232386 32.4 
" style="fill: none; stroke: #000000; stroke-width: 0.8; stroke-linejoin: miter; stroke-linecap: square"/>
   </g>
   <g id="patch_10">
    <path d="M 620.86875 226.44 
L 620.86875 32.4 
" style="fill: none; stroke: #000000; stroke-width: 0.8; stroke-linejoin: miter; stroke-linecap: square"/>
   </g>
   <g id="patch_11">
    <path d="M 367.232386 226.44 
L 620.86875 226.44 
" style="fill: none; stroke: #000000; stroke-width: 0.8; stroke-linejoin: miter; stroke-linecap: square"/>
   </g>
   <g id="patch_12">
    <path d="M 367.232386 32.4 
L 620.86875 32.4 
" style="fill: none; stroke: #000000; stroke-width: 0.8; stroke-linejoin: miter; stroke-linecap: square"/>
   </g>
   <g id="legend_2">
    <g id="patch_13">
     <path d="M 539.320312 221.44 
L 613.86875 221.44 
Q 615.86875 221.44 615.86875 219.44 
L 615.86875 147.049375 
Q 615.86875 145.049375 613.86875 145.049375 
L 539.320312 145.049375 
Q 537.320312 145.049375 537.320312 147.049375 
L 537.320312 219.44 
Q 537.320312 221.44 539.320312 221.44 
z
" style="fill: #ffffff; opacity: 0.8; stroke: #cccccc; stroke-linejoin: miter"/>
    </g>
    <g id="line2d_49">
     <path d="M 541.320312 153.147812 
L 551.320312 153.147812 
L 561.320312 153.147812 
" style="fill: none; stroke: #1f77b4; stroke-width: 1.5; stroke-linecap: square"/>
    </g>
    <g id="text_42">
     <!-- Rusanov -->
     <g transform="translate(569.320312 156.647812) scale(0.1 -0.1)">
      <use xlink:href="#DejaVuSans-52"/>
      <use xlink:href="#DejaVuSans-75" x="64.982422"/>
      <use xlink:href="#DejaVuSans-73" x="128.361328"/>
      <use xlink:href="#DejaVuSans-61" x="180.460938"/>
      <use xlink:href="#DejaVuSans-6e" x="241.740234"/>
      <use xlink:href="#DejaVuSans-6f" x="305.119141"/>
      <use xlink:href="#DejaVuSans-76" x="366.300781"/>
     </g>
    </g>
    <g id="line2d_50">
     <path d="M 541.320312 167.825937 
L 551.320312 167.825937 
L 561.320312 167.825937 
" style="fill: none; stroke-dasharray: 5.55,2.4; stroke-dashoffset: 0; stroke: #ff7f0e; stroke-width: 1.5"/>
    </g>
    <g id="text_43">
     <!-- Roe -->
     <g transform="translate(569.320312 171.325937) scale(0.1 -0.1)">
      <use xlink:href="#DejaVuSans-52"/>
      <use xlink:href="#DejaVuSans-6f" x="64.982422"/>
      <use xlink:href="#DejaVuSans-65" x="126.164062"/>
     </g>
    </g>
    <g id="line2d_51">
     <path d="M 541.320312 182.504062 
L 551.320312 182.504062 
L 561.320312 182.504062 
" style="fill: none; stroke-dasharray: 9.6,2.4,1.5,2.4; stroke-dashoffset: 0; stroke: #2ca02c; stroke-width: 1.5"/>
    </g>
    <g id="text_44">
     <!-- HLL -->
     <g transform="translate(569.320312 186.004062) scale(0.1 -0.1)">
      <use xlink:href="#DejaVuSans-48"/>
      <use xlink:href="#DejaVuSans-4c" x="75.195312"/>
      <use xlink:href="#DejaVuSans-4c" x="130.908203"/>
     </g>
    </g>
    <g id="line2d_52">
     <path d="M 541.320312 197.182187 
L 551.320312 197.182187 
L 561.320312 197.182187 
" style="fill: none; stroke-dasharray: 9.6,2.4,1.5,2.4; stroke-dashoffset: 0; stroke: #d62728; stroke-width: 1.5"/>
    </g>
    <g id="text_45">
     <!-- HLLC -->
     <g transform="translate(569.320312 200.682187) scale(0.1 -0.1)">
      <use xlink:href="#DejaVuSans-48"/>
      <use xlink:href="#DejaVuSans-4c" x="75.195312"/>
      <use xlink:href="#DejaVuSans-4c" x="130.908203"/>
      <use xlink:href="#DejaVuSans-43" x="186.621094"/>
     </g>
    </g>
    <g id="line2d_53">
     <path d="M 541.320312 211.860312 
L 551.320312 211.860312 
L 561.320312 211.860312 
" style="fill: none; stroke-dasharray: 1.5,2.475; stroke-dashoffset: 0; stroke: #9467bd; stroke-width: 1.5"/>
    </g>
    <g id="text_46">
     <!-- MUSCL -->
     <g transform="translate(569.320312 215.360312) scale(0.1 -0.1)">
      <use xlink:href="#DejaVuSans-4d"/>
      <use xlink:href="#DejaVuSans-55" x="86.279297"/>
      <use xlink:href="#DejaVuSans-53" x="159.472656"/>
      <use xlink:href="#DejaVuSans-43" x="222.949219"/>
      <use xlink:href="#DejaVuSans-4c" x="292.773438"/>
     </g>
    </g>
   </g>
  </g>
  <g id="text_47">
   <!-- Comparaison de la hauteur finale pour diffrents schmas -->
   <g transform="translate(157.851562 16.798125) scale(0.12 -0.12)">
    <defs>
     <path id="DejaVuSans-70" d="M 1159 525 
L 1159 -1331 
L 581 -1331 
L 581 3500 
L 1159 3500 
L 1159 2969 
Q 1341 3281 1617 3432 
Q 1894 3584 2278 3584 
Q 2916 3584 3314 3078 
Q 3713 2572 3713 1747 
Q 3713 922 3314 415 
Q 2916 -91 2278 -91 
Q 1894 -91 1617 61 
Q 1341 213 1159 525 
z
M 3116 1747 
Q 3116 2381 2855 2742 
Q 2594 3103 2138 3103 
Q 1681 3103 1420 2742 
Q 1159 2381 1159 1747 
Q 1159 1113 1420 752 
Q 1681 391 2138 391 
Q 2594 391 2855 752 
Q 3116 1113 3116 1747 
z
" transform="scale(0.015625)"/>
     <path id="DejaVuSans-64" d="M 2906 2969 
L 2906 4863 
L 3481 4863 
L 3481 0 
L 2906 0 
L 2906 525 
Q 2725 213 2448 61 
Q 2172 -91 1784 -91 
Q 1150 -91 751 415 
Q 353 922 353 1747 
Q 353 2572 751 3078 
Q 1150 3584 1784 3584 
Q 2172 3584 2448 3432 
Q 2725 3281 2906 2969 
z
M 947 1747 
Q 947 1113 1208 752 
Q 1469 391 1925 391 
Q 2381 391 2643 752 
Q 2906 1113 2906 1747 
Q 2906 2381 2643 2742 
Q 2381 3103 1925 3103 
Q 1469 3103 1208 2742 
Q 947 2381 947 1747 
z
" transform="scale(0.015625)"/>
     <path id="DejaVuSans-e9" d="M 3597 1894 
L 3597 1613 
L 953 1613 
Q 991 1019 1311 708 
Q 1631 397 2203 397 
Q 2534 397 2845 478 
Q 3156 559 3463 722 
L 3463 178 
Q 3153 47 2828 -22 
Q 2503 -91 2169 -91 
Q 1331 -91 842 396 
Q 353 884 353 1716 
Q 353 2575 817 3079 
Q 1281 3584 2069 3584 
Q 2775 3584 3186 3129 
Q 3597 2675 3597 1894 
z
M 3022 2063 
Q 3016 2534 2758 2815 
Q 2500 3097 2075 3097 
Q 1594 3097 1305 2825 
Q 1016 2553 972 2059 
L 3022 2063 
z
M 2469 5119 
L 3091 5119 
L 2072 3944 
L 1594 3944 
L 2469 5119 
z
" transform="scale(0.015625)"/>
     <path id="DejaVuSans-63" d="M 3122 3366 
L 3122 2828 
Q 2878 2963 2633 3030 
Q 2388 3097 2138 3097 
Q 1578 3097 1268 2742 
Q 959 2388 959 1747 
Q 959 1106 1268 751 
Q 1578 397 2138 397 
Q 2388 397 2633 464 
Q 2878 531 3122 666 
L 3122 134 
Q 2881 22 2623 -34 
Q 2366 -91 2075 -91 
Q 1284 -91 818 406 
Q 353 903 353 1747 
Q 353 2603 823 3093 
Q 1294 3584 2113 3584 
Q 2378 3584 2631 3529 
Q 2884 3475 3122 3366 
z
" transform="scale(0.015625)"/>
    </defs>
    <use xlink:href="#DejaVuSans-43"/>
    <use xlink:href="#DejaVuSans-6f" x="69.824219"/>
    <use xlink:href="#DejaVuSans-6d" x="131.005859"/>
    <use xlink:href="#DejaVuSans-70" x="228.417969"/>
    <use xlink:href="#DejaVuSans-61" x="291.894531"/>
    <use xlink:href="#DejaVuSans-72" x="353.173828"/>
    <use xlink:href="#DejaVuSans-61" x="394.287109"/>
    <use xlink:href="#DejaVuSans-69" x="455.566406"/>
    <use xlink:href="#DejaVuSans-73" x="483.349609"/>
    <use xlink:href="#DejaVuSans-6f" x="535.449219"/>
    <use xlink:href="#DejaVuSans-6e" x="596.630859"/>
    <use xlink:href="#DejaVuSans-20" x="660.009766"/>
    <use xlink:href="#DejaVuSans-64" x="691.796875"/>
    <use xlink:href="#DejaVuSans-65" x="755.273438"/>
    <use xlink:href="#DejaVuSans-20" x="816.796875"/>
    <use xlink:href="#DejaVuSans-6c" x="848.583984"/>
    <use xlink:href="#DejaVuSans-61" x="876.367188"/>
    <use xlink:href="#DejaVuSans-20" x="937.646484"/>
    <use xlink:href="#DejaVuSans-68" x="969.433594"/>
    <use xlink:href="#DejaVuSans-61" x="1032.8125"/>
    <use xlink:href="#DejaVuSans-75" x="1094.091797"/>
    <use xlink:href="#DejaVuSans-74" x="1157.470703"/>
    <use xlink:href="#DejaVuSans-65" x="1196.679688"/>
    <use xlink:href="#DejaVuSans-75" x="1258.203125"/>
    <use xlink:href="#DejaVuSans-72" x="1321.582031"/>
    <use xlink:href="#DejaVuSans-20" x="1362.695312"/>
    <use xlink:href="#DejaVuSans-66" x="1394.482422"/>
    <use xlink:href="#DejaVuSans-69" x="1429.6875"/>
    <use xlink:href="#DejaVuSans-6e" x="1457.470703"/>
    <use xlink:href="#DejaVuSans-61" x="1520.849609"/>
    <use xlink:href="#DejaVuSans-6c" x="1582.128906"/>
    <use xlink:href="#DejaVuSans-65" x="1609.912109"/>
    <use xlink:href="#DejaVuSans-20" x="1671.435547"/>
    <use xlink:href="#DejaVuSans-70" x="1703.222656"/>
    <use xlink:href="#DejaVuSans-6f" x="1766.699219"/>
    <use xlink:href="#DejaVuSans-75" x="1827.880859"/>
    <use xlink:href="#DejaVuSans-72" x="1891.259766"/>
    <use xlink:href="#DejaVuSans-20" x="1932.373047"/>
    <use xlink:href="#DejaVuSans-64" x="1964.160156"/>
    <use xlink:href="#DejaVuSans-69" x="2027.636719"/>
    <use xlink:href="#DejaVuSans-66" x="2055.419922"/>
    <use xlink:href="#DejaVuSans-66" x="2090.625"/>
    <use xlink:href="#DejaVuSans-e9" x="2125.830078"/>
    <use xlink:href="#DejaVuSans-72" x="2187.353516"/>
    <use xlink:href="#DejaVuSans-65" x="2226.216797"/>
    <use xlink:href="#DejaVuSans-6e" x="2287.740234"/>
    <use xlink:href="#DejaVuSans-74" x="2351.119141"/>
    <use xlink:href="#DejaVuSans-73" x="2390.328125"/>
    <use xlink:href="#DejaVuSans-20" x="2442.427734"/>
    <use xlink:href="#DejaVuSans-73" x="2474.214844"/>
    <use xlink:href="#DejaVuSans-63" x="2526.314453"/>
    <use xlink:href="#DejaVuSans-68" x="2581.294922"/>
    <use xlink:href="#DejaVuSans-e9" x="2644.673828"/>
    <use xlink:href="#DejaVuSans-6d" x="2706.197266"/>
    <use xlink:href="#DejaVuSans-61" x="2803.609375"/>
    <use xlink:href="#DejaVuSans-73" x="2864.888672"/>
   </g>
  </g>
 </g>
 <defs>
  <clipPath id="p9e11b88f20">
   <rect x="62.86875" y="32.4" width="253.636364" height="194.04"/>
  </clipPath>
  <clipPath id="pb9b4d1f380">
   <rect x="367.232386" y="32.4" width="253.636364" height="194.04"/>
  </clipPath>
 </defs>
</svg>
