<?xml version="1.0" encoding="utf-8" standalone="no"?>
<!DOCTYPE svg PUBLIC "-//W3C//DTD SVG 1.1//EN"
  "http://www.w3.org/Graphics/SVG/1.1/DTD/svg11.dtd">
<svg xmlns:xlink="http://www.w3.org/1999/xlink" width="622.69334pt" height="263.99625pt" viewBox="0 0 622.69334 263.99625" xmlns="http://www.w3.org/2000/svg" version="1.1">
 <metadata>
  <rdf:RDF xmlns:dc="http://purl.org/dc/elements/1.1/" xmlns:cc="http://creativecommons.org/ns#" xmlns:rdf="http://www.w3.org/1999/02/22-rdf-syntax-ns#">
   <cc:Work>
    <dc:type rdf:resource="http://purl.org/dc/dcmitype/StillImage"/>
    <dc:date>2025-01-22T00:11:17.504029</dc:date>
    <dc:format>image/svg+xml</dc:format>
    <dc:creator>
     <cc:Agent>
      <dc:title>Matplotlib v3.9.2, https://matplotlib.org/</dc:title>
     </cc:Agent>
    </dc:creator>
   </cc:Work>
  </rdf:RDF>
 </metadata>
 <defs>
  <style type="text/css">*{stroke-linejoin: round; stroke-linecap: butt}</style>
 </defs>
 <g id="figure_1">
  <g id="patch_1">
   <path d="M 0 263.99625 
L 622.69334 263.99625 
L 622.69334 0 
L 0 0 
z
" style="fill: #ffffff"/>
  </g>
  <g id="axes_1">
   <g id="patch_2">
    <path d="M 50.14375 226.44 
L 303.780114 226.44 
L 303.780114 32.4 
L 50.14375 32.4 
z
" style="fill: #ffffff"/>
   </g>
   <g id="matplotlib.axis_1">
    <g id="xtick_1">
     <g id="line2d_1">
      <defs>
       <path id="ma5d985f88e" d="M 0 0 
L 0 3.5 
" style="stroke: #000000; stroke-width: 0.8"/>
      </defs>
      <g>
       <use xlink:href="#ma5d985f88e" x="53.102395" y="226.44" style="stroke: #000000; stroke-width: 0.8"/>
      </g>
     </g>
     <g id="text_1">
      <!-- 0.00 -->
      <g transform="translate(41.969582 241.038437) scale(0.1 -0.1)">
       <defs>
        <path id="DejaVuSans-30" d="M 2034 4250 
Q 1547 4250 1301 3770 
Q 1056 3291 1056 2328 
Q 1056 1369 1301 889 
Q 1547 409 2034 409 
Q 2525 409 2770 889 
Q 3016 1369 3016 2328 
Q 3016 3291 2770 3770 
Q 2525 4250 2034 4250 
z
M 2034 4750 
Q 2819 4750 3233 4129 
Q 3647 3509 3647 2328 
Q 3647 1150 3233 529 
Q 2819 -91 2034 -91 
Q 1250 -91 836 529 
Q 422 1150 422 2328 
Q 422 3509 836 4129 
Q 1250 4750 2034 4750 
z
" transform="scale(0.015625)"/>
        <path id="DejaVuSans-2e" d="M 684 794 
L 1344 794 
L 1344 0 
L 684 0 
L 684 794 
z
" transform="scale(0.015625)"/>
       </defs>
       <use xlink:href="#DejaVuSans-30"/>
       <use xlink:href="#DejaVuSans-2e" x="63.623047"/>
       <use xlink:href="#DejaVuSans-30" x="95.410156"/>
       <use xlink:href="#DejaVuSans-30" x="159.033203"/>
      </g>
     </g>
    </g>
    <g id="xtick_2">
     <g id="line2d_2">
      <g>
       <use xlink:href="#ma5d985f88e" x="93.057084" y="226.44" style="stroke: #000000; stroke-width: 0.8"/>
      </g>
     </g>
     <g id="text_2">
      <!-- 0.05 -->
      <g transform="translate(81.924272 241.038437) scale(0.1 -0.1)">
       <defs>
        <path id="DejaVuSans-35" d="M 691 4666 
L 3169 4666 
L 3169 4134 
L 1269 4134 
L 1269 2991 
Q 1406 3038 1543 3061 
Q 1681 3084 1819 3084 
Q 2600 3084 3056 2656 
Q 3513 2228 3513 1497 
Q 3513 744 3044 326 
Q 2575 -91 1722 -91 
Q 1428 -91 1123 -41 
Q 819 9 494 109 
L 494 744 
Q 775 591 1075 516 
Q 1375 441 1709 441 
Q 2250 441 2565 725 
Q 2881 1009 2881 1497 
Q 2881 1984 2565 2268 
Q 2250 2553 1709 2553 
Q 1456 2553 1204 2497 
Q 953 2441 691 2322 
L 691 4666 
z
" transform="scale(0.015625)"/>
       </defs>
       <use xlink:href="#DejaVuSans-30"/>
       <use xlink:href="#DejaVuSans-2e" x="63.623047"/>
       <use xlink:href="#DejaVuSans-30" x="95.410156"/>
       <use xlink:href="#DejaVuSans-35" x="159.033203"/>
      </g>
     </g>
    </g>
    <g id="xtick_3">
     <g id="line2d_3">
      <g>
       <use xlink:href="#ma5d985f88e" x="133.011774" y="226.44" style="stroke: #000000; stroke-width: 0.8"/>
      </g>
     </g>
     <g id="text_3">
      <!-- 0.10 -->
      <g transform="translate(121.878961 241.038437) scale(0.1 -0.1)">
       <defs>
        <path id="DejaVuSans-31" d="M 794 531 
L 1825 531 
L 1825 4091 
L 703 3866 
L 703 4441 
L 1819 4666 
L 2450 4666 
L 2450 531 
L 3481 531 
L 3481 0 
L 794 0 
L 794 531 
z
" transform="scale(0.015625)"/>
       </defs>
       <use xlink:href="#DejaVuSans-30"/>
       <use xlink:href="#DejaVuSans-2e" x="63.623047"/>
       <use xlink:href="#DejaVuSans-31" x="95.410156"/>
       <use xlink:href="#DejaVuSans-30" x="159.033203"/>
      </g>
     </g>
    </g>
    <g id="xtick_4">
     <g id="line2d_4">
      <g>
       <use xlink:href="#ma5d985f88e" x="172.966463" y="226.44" style="stroke: #000000; stroke-width: 0.8"/>
      </g>
     </g>
     <g id="text_4">
      <!-- 0.15 -->
      <g transform="translate(161.83365 241.038437) scale(0.1 -0.1)">
       <use xlink:href="#DejaVuSans-30"/>
       <use xlink:href="#DejaVuSans-2e" x="63.623047"/>
       <use xlink:href="#DejaVuSans-31" x="95.410156"/>
       <use xlink:href="#DejaVuSans-35" x="159.033203"/>
      </g>
     </g>
    </g>
    <g id="xtick_5">
     <g id="line2d_5">
      <g>
       <use xlink:href="#ma5d985f88e" x="212.921152" y="226.44" style="stroke: #000000; stroke-width: 0.8"/>
      </g>
     </g>
     <g id="text_5">
      <!-- 0.20 -->
      <g transform="translate(201.78834 241.038437) scale(0.1 -0.1)">
       <defs>
        <path id="DejaVuSans-32" d="M 1228 531 
L 3431 531 
L 3431 0 
L 469 0 
L 469 531 
Q 828 903 1448 1529 
Q 2069 2156 2228 2338 
Q 2531 2678 2651 2914 
Q 2772 3150 2772 3378 
Q 2772 3750 2511 3984 
Q 2250 4219 1831 4219 
Q 1534 4219 1204 4116 
Q 875 4013 500 3803 
L 500 4441 
Q 881 4594 1212 4672 
Q 1544 4750 1819 4750 
Q 2544 4750 2975 4387 
Q 3406 4025 3406 3419 
Q 3406 3131 3298 2873 
Q 3191 2616 2906 2266 
Q 2828 2175 2409 1742 
Q 1991 1309 1228 531 
z
" transform="scale(0.015625)"/>
       </defs>
       <use xlink:href="#DejaVuSans-30"/>
       <use xlink:href="#DejaVuSans-2e" x="63.623047"/>
       <use xlink:href="#DejaVuSans-32" x="95.410156"/>
       <use xlink:href="#DejaVuSans-30" x="159.033203"/>
      </g>
     </g>
    </g>
    <g id="xtick_6">
     <g id="line2d_6">
      <g>
       <use xlink:href="#ma5d985f88e" x="252.875842" y="226.44" style="stroke: #000000; stroke-width: 0.8"/>
      </g>
     </g>
     <g id="text_6">
      <!-- 0.25 -->
      <g transform="translate(241.743029 241.038437) scale(0.1 -0.1)">
       <use xlink:href="#DejaVuSans-30"/>
       <use xlink:href="#DejaVuSans-2e" x="63.623047"/>
       <use xlink:href="#DejaVuSans-32" x="95.410156"/>
       <use xlink:href="#DejaVuSans-35" x="159.033203"/>
      </g>
     </g>
    </g>
    <g id="xtick_7">
     <g id="line2d_7">
      <g>
       <use xlink:href="#ma5d985f88e" x="292.830531" y="226.44" style="stroke: #000000; stroke-width: 0.8"/>
      </g>
     </g>
     <g id="text_7">
      <!-- 0.30 -->
      <g transform="translate(281.697719 241.038437) scale(0.1 -0.1)">
       <defs>
        <path id="DejaVuSans-33" d="M 2597 2516 
Q 3050 2419 3304 2112 
Q 3559 1806 3559 1356 
Q 3559 666 3084 287 
Q 2609 -91 1734 -91 
Q 1441 -91 1130 -33 
Q 819 25 488 141 
L 488 750 
Q 750 597 1062 519 
Q 1375 441 1716 441 
Q 2309 441 2620 675 
Q 2931 909 2931 1356 
Q 2931 1769 2642 2001 
Q 2353 2234 1838 2234 
L 1294 2234 
L 1294 2753 
L 1863 2753 
Q 2328 2753 2575 2939 
Q 2822 3125 2822 3475 
Q 2822 3834 2567 4026 
Q 2313 4219 1838 4219 
Q 1578 4219 1281 4162 
Q 984 4106 628 3988 
L 628 4550 
Q 988 4650 1302 4700 
Q 1616 4750 1894 4750 
Q 2613 4750 3031 4423 
Q 3450 4097 3450 3541 
Q 3450 3153 3228 2886 
Q 3006 2619 2597 2516 
z
" transform="scale(0.015625)"/>
       </defs>
       <use xlink:href="#DejaVuSans-30"/>
       <use xlink:href="#DejaVuSans-2e" x="63.623047"/>
       <use xlink:href="#DejaVuSans-33" x="95.410156"/>
       <use xlink:href="#DejaVuSans-30" x="159.033203"/>
      </g>
     </g>
    </g>
    <g id="text_8">
     <!-- r (m) -->
     <g transform="translate(164.545526 254.716562) scale(0.1 -0.1)">
      <defs>
       <path id="DejaVuSans-72" d="M 2631 2963 
Q 2534 3019 2420 3045 
Q 2306 3072 2169 3072 
Q 1681 3072 1420 2755 
Q 1159 2438 1159 1844 
L 1159 0 
L 581 0 
L 581 3500 
L 1159 3500 
L 1159 2956 
Q 1341 3275 1631 3429 
Q 1922 3584 2338 3584 
Q 2397 3584 2469 3576 
Q 2541 3569 2628 3553 
L 2631 2963 
z
" transform="scale(0.015625)"/>
       <path id="DejaVuSans-20" transform="scale(0.015625)"/>
       <path id="DejaVuSans-28" d="M 1984 4856 
Q 1566 4138 1362 3434 
Q 1159 2731 1159 2009 
Q 1159 1288 1364 580 
Q 1569 -128 1984 -844 
L 1484 -844 
Q 1016 -109 783 600 
Q 550 1309 550 2009 
Q 550 2706 781 3412 
Q 1013 4119 1484 4856 
L 1984 4856 
z
" transform="scale(0.015625)"/>
       <path id="DejaVuSans-6d" d="M 3328 2828 
Q 3544 3216 3844 3400 
Q 4144 3584 4550 3584 
Q 5097 3584 5394 3201 
Q 5691 2819 5691 2113 
L 5691 0 
L 5113 0 
L 5113 2094 
Q 5113 2597 4934 2840 
Q 4756 3084 4391 3084 
Q 3944 3084 3684 2787 
Q 3425 2491 3425 1978 
L 3425 0 
L 2847 0 
L 2847 2094 
Q 2847 2600 2669 2842 
Q 2491 3084 2119 3084 
Q 1678 3084 1418 2786 
Q 1159 2488 1159 1978 
L 1159 0 
L 581 0 
L 581 3500 
L 1159 3500 
L 1159 2956 
Q 1356 3278 1631 3431 
Q 1906 3584 2284 3584 
Q 2666 3584 2933 3390 
Q 3200 3197 3328 2828 
z
" transform="scale(0.015625)"/>
       <path id="DejaVuSans-29" d="M 513 4856 
L 1013 4856 
Q 1481 4119 1714 3412 
Q 1947 2706 1947 2009 
Q 1947 1309 1714 600 
Q 1481 -109 1013 -844 
L 513 -844 
Q 928 -128 1133 580 
Q 1338 1288 1338 2009 
Q 1338 2731 1133 3434 
Q 928 4138 513 4856 
z
" transform="scale(0.015625)"/>
      </defs>
      <use xlink:href="#DejaVuSans-72"/>
      <use xlink:href="#DejaVuSans-20" x="41.113281"/>
      <use xlink:href="#DejaVuSans-28" x="72.900391"/>
      <use xlink:href="#DejaVuSans-6d" x="111.914062"/>
      <use xlink:href="#DejaVuSans-29" x="209.326172"/>
     </g>
    </g>
   </g>
   <g id="matplotlib.axis_2">
    <g id="ytick_1">
     <g id="line2d_8">
      <defs>
       <path id="m76aff55df9" d="M 0 0 
L -3.5 0 
" style="stroke: #000000; stroke-width: 0.8"/>
      </defs>
      <g>
       <use xlink:href="#m76aff55df9" x="50.14375" y="189.414695" style="stroke: #000000; stroke-width: 0.8"/>
      </g>
     </g>
     <g id="text_9">
      <!-- 0.01 -->
      <g transform="translate(20.878125 193.213914) scale(0.1 -0.1)">
       <use xlink:href="#DejaVuSans-30"/>
       <use xlink:href="#DejaVuSans-2e" x="63.623047"/>
       <use xlink:href="#DejaVuSans-30" x="95.410156"/>
       <use xlink:href="#DejaVuSans-31" x="159.033203"/>
      </g>
     </g>
    </g>
    <g id="ytick_2">
     <g id="line2d_9">
      <g>
       <use xlink:href="#m76aff55df9" x="50.14375" y="152.366021" style="stroke: #000000; stroke-width: 0.8"/>
      </g>
     </g>
     <g id="text_10">
      <!-- 0.02 -->
      <g transform="translate(20.878125 156.16524) scale(0.1 -0.1)">
       <use xlink:href="#DejaVuSans-30"/>
       <use xlink:href="#DejaVuSans-2e" x="63.623047"/>
       <use xlink:href="#DejaVuSans-30" x="95.410156"/>
       <use xlink:href="#DejaVuSans-32" x="159.033203"/>
      </g>
     </g>
    </g>
    <g id="ytick_3">
     <g id="line2d_10">
      <g>
       <use xlink:href="#m76aff55df9" x="50.14375" y="115.317348" style="stroke: #000000; stroke-width: 0.8"/>
      </g>
     </g>
     <g id="text_11">
      <!-- 0.03 -->
      <g transform="translate(20.878125 119.116566) scale(0.1 -0.1)">
       <use xlink:href="#DejaVuSans-30"/>
       <use xlink:href="#DejaVuSans-2e" x="63.623047"/>
       <use xlink:href="#DejaVuSans-30" x="95.410156"/>
       <use xlink:href="#DejaVuSans-33" x="159.033203"/>
      </g>
     </g>
    </g>
    <g id="ytick_4">
     <g id="line2d_11">
      <g>
       <use xlink:href="#m76aff55df9" x="50.14375" y="78.268674" style="stroke: #000000; stroke-width: 0.8"/>
      </g>
     </g>
     <g id="text_12">
      <!-- 0.04 -->
      <g transform="translate(20.878125 82.067893) scale(0.1 -0.1)">
       <defs>
        <path id="DejaVuSans-34" d="M 2419 4116 
L 825 1625 
L 2419 1625 
L 2419 4116 
z
M 2253 4666 
L 3047 4666 
L 3047 1625 
L 3713 1625 
L 3713 1100 
L 3047 1100 
L 3047 0 
L 2419 0 
L 2419 1100 
L 313 1100 
L 313 1709 
L 2253 4666 
z
" transform="scale(0.015625)"/>
       </defs>
       <use xlink:href="#DejaVuSans-30"/>
       <use xlink:href="#DejaVuSans-2e" x="63.623047"/>
       <use xlink:href="#DejaVuSans-30" x="95.410156"/>
       <use xlink:href="#DejaVuSans-34" x="159.033203"/>
      </g>
     </g>
    </g>
    <g id="ytick_5">
     <g id="line2d_12">
      <g>
       <use xlink:href="#m76aff55df9" x="50.14375" y="41.22" style="stroke: #000000; stroke-width: 0.8"/>
      </g>
     </g>
     <g id="text_13">
      <!-- 0.05 -->
      <g transform="translate(20.878125 45.019219) scale(0.1 -0.1)">
       <use xlink:href="#DejaVuSans-30"/>
       <use xlink:href="#DejaVuSans-2e" x="63.623047"/>
       <use xlink:href="#DejaVuSans-30" x="95.410156"/>
       <use xlink:href="#DejaVuSans-35" x="159.033203"/>
      </g>
     </g>
    </g>
    <g id="text_14">
     <!-- Hauteur finale h(r) -->
     <g transform="translate(14.798438 175.825469) rotate(-90) scale(0.1 -0.1)">
      <defs>
       <path id="DejaVuSans-48" d="M 628 4666 
L 1259 4666 
L 1259 2753 
L 3553 2753 
L 3553 4666 
L 4184 4666 
L 4184 0 
L 3553 0 
L 3553 2222 
L 1259 2222 
L 1259 0 
L 628 0 
L 628 4666 
z
" transform="scale(0.015625)"/>
       <path id="DejaVuSans-61" d="M 2194 1759 
Q 1497 1759 1228 1600 
Q 959 1441 959 1056 
Q 959 750 1161 570 
Q 1363 391 1709 391 
Q 2188 391 2477 730 
Q 2766 1069 2766 1631 
L 2766 1759 
L 2194 1759 
z
M 3341 1997 
L 3341 0 
L 2766 0 
L 2766 531 
Q 2569 213 2275 61 
Q 1981 -91 1556 -91 
Q 1019 -91 701 211 
Q 384 513 384 1019 
Q 384 1609 779 1909 
Q 1175 2209 1959 2209 
L 2766 2209 
L 2766 2266 
Q 2766 2663 2505 2880 
Q 2244 3097 1772 3097 
Q 1472 3097 1187 3025 
Q 903 2953 641 2809 
L 641 3341 
Q 956 3463 1253 3523 
Q 1550 3584 1831 3584 
Q 2591 3584 2966 3190 
Q 3341 2797 3341 1997 
z
" transform="scale(0.015625)"/>
       <path id="DejaVuSans-75" d="M 544 1381 
L 544 3500 
L 1119 3500 
L 1119 1403 
Q 1119 906 1312 657 
Q 1506 409 1894 409 
Q 2359 409 2629 706 
Q 2900 1003 2900 1516 
L 2900 3500 
L 3475 3500 
L 3475 0 
L 2900 0 
L 2900 538 
Q 2691 219 2414 64 
Q 2138 -91 1772 -91 
Q 1169 -91 856 284 
Q 544 659 544 1381 
z
M 1991 3584 
L 1991 3584 
z
" transform="scale(0.015625)"/>
       <path id="DejaVuSans-74" d="M 1172 4494 
L 1172 3500 
L 2356 3500 
L 2356 3053 
L 1172 3053 
L 1172 1153 
Q 1172 725 1289 603 
Q 1406 481 1766 481 
L 2356 481 
L 2356 0 
L 1766 0 
Q 1100 0 847 248 
Q 594 497 594 1153 
L 594 3053 
L 172 3053 
L 172 3500 
L 594 3500 
L 594 4494 
L 1172 4494 
z
" transform="scale(0.015625)"/>
       <path id="DejaVuSans-65" d="M 3597 1894 
L 3597 1613 
L 953 1613 
Q 991 1019 1311 708 
Q 1631 397 2203 397 
Q 2534 397 2845 478 
Q 3156 559 3463 722 
L 3463 178 
Q 3153 47 2828 -22 
Q 2503 -91 2169 -91 
Q 1331 -91 842 396 
Q 353 884 353 1716 
Q 353 2575 817 3079 
Q 1281 3584 2069 3584 
Q 2775 3584 3186 3129 
Q 3597 2675 3597 1894 
z
M 3022 2063 
Q 3016 2534 2758 2815 
Q 2500 3097 2075 3097 
Q 1594 3097 1305 2825 
Q 1016 2553 972 2059 
L 3022 2063 
z
" transform="scale(0.015625)"/>
       <path id="DejaVuSans-66" d="M 2375 4863 
L 2375 4384 
L 1825 4384 
Q 1516 4384 1395 4259 
Q 1275 4134 1275 3809 
L 1275 3500 
L 2222 3500 
L 2222 3053 
L 1275 3053 
L 1275 0 
L 697 0 
L 697 3053 
L 147 3053 
L 147 3500 
L 697 3500 
L 697 3744 
Q 697 4328 969 4595 
Q 1241 4863 1831 4863 
L 2375 4863 
z
" transform="scale(0.015625)"/>
       <path id="DejaVuSans-69" d="M 603 3500 
L 1178 3500 
L 1178 0 
L 603 0 
L 603 3500 
z
M 603 4863 
L 1178 4863 
L 1178 4134 
L 603 4134 
L 603 4863 
z
" transform="scale(0.015625)"/>
       <path id="DejaVuSans-6e" d="M 3513 2113 
L 3513 0 
L 2938 0 
L 2938 2094 
Q 2938 2591 2744 2837 
Q 2550 3084 2163 3084 
Q 1697 3084 1428 2787 
Q 1159 2491 1159 1978 
L 1159 0 
L 581 0 
L 581 3500 
L 1159 3500 
L 1159 2956 
Q 1366 3272 1645 3428 
Q 1925 3584 2291 3584 
Q 2894 3584 3203 3211 
Q 3513 2838 3513 2113 
z
" transform="scale(0.015625)"/>
       <path id="DejaVuSans-6c" d="M 603 4863 
L 1178 4863 
L 1178 0 
L 603 0 
L 603 4863 
z
" transform="scale(0.015625)"/>
       <path id="DejaVuSans-68" d="M 3513 2113 
L 3513 0 
L 2938 0 
L 2938 2094 
Q 2938 2591 2744 2837 
Q 2550 3084 2163 3084 
Q 1697 3084 1428 2787 
Q 1159 2491 1159 1978 
L 1159 0 
L 581 0 
L 581 4863 
L 1159 4863 
L 1159 2956 
Q 1366 3272 1645 3428 
Q 1925 3584 2291 3584 
Q 2894 3584 3203 3211 
Q 3513 2838 3513 2113 
z
" transform="scale(0.015625)"/>
      </defs>
      <use xlink:href="#DejaVuSans-48"/>
      <use xlink:href="#DejaVuSans-61" x="75.195312"/>
      <use xlink:href="#DejaVuSans-75" x="136.474609"/>
      <use xlink:href="#DejaVuSans-74" x="199.853516"/>
      <use xlink:href="#DejaVuSans-65" x="239.0625"/>
      <use xlink:href="#DejaVuSans-75" x="300.585938"/>
      <use xlink:href="#DejaVuSans-72" x="363.964844"/>
      <use xlink:href="#DejaVuSans-20" x="405.078125"/>
      <use xlink:href="#DejaVuSans-66" x="436.865234"/>
      <use xlink:href="#DejaVuSans-69" x="472.070312"/>
      <use xlink:href="#DejaVuSans-6e" x="499.853516"/>
      <use xlink:href="#DejaVuSans-61" x="563.232422"/>
      <use xlink:href="#DejaVuSans-6c" x="624.511719"/>
      <use xlink:href="#DejaVuSans-65" x="652.294922"/>
      <use xlink:href="#DejaVuSans-20" x="713.818359"/>
      <use xlink:href="#DejaVuSans-68" x="745.605469"/>
      <use xlink:href="#DejaVuSans-28" x="808.984375"/>
      <use xlink:href="#DejaVuSans-72" x="847.998047"/>
      <use xlink:href="#DejaVuSans-29" x="889.111328"/>
     </g>
    </g>
   </g>
   <g id="line2d_13">
    <path d="M 61.672676 41.22 
L 62.831362 63.21158 
L 63.990048 80.603358 
L 65.148734 94.690064 
L 66.30742 106.324734 
L 67.466106 116.091646 
L 68.624792 124.40406 
L 69.783478 131.562297 
L 70.942164 137.789713 
L 72.10085 143.255781 
L 73.259536 148.091363 
L 74.418222 152.399073 
L 76.735594 159.74126 
L 79.052965 165.765031 
L 81.370337 170.795179 
L 83.687709 175.058153 
L 86.005081 178.716598 
L 88.322453 181.890304 
L 90.639825 184.66943 
L 92.957197 187.123117 
L 95.274569 189.305268 
L 97.591941 191.258524 
L 101.067999 193.832154 
L 104.544057 196.055693 
L 108.020115 197.995946 
L 111.496173 199.703751 
L 116.130917 201.686034 
L 120.765661 203.395175 
L 125.400405 204.883949 
L 131.193835 206.495069 
L 136.987265 207.8825 
L 143.939381 209.312664 
L 152.050183 210.72601 
L 161.319671 212.080715 
L 171.747845 213.350702 
L 183.334705 214.519038 
L 185.652077 214.615844 
L 186.810763 214.202196 
L 187.969449 212.192498 
L 189.128135 206.254928 
L 190.286821 193.824951 
L 192.604193 155.957126 
L 193.762879 143.922916 
L 194.921565 139.185959 
L 196.080251 137.956493 
L 197.238937 137.810453 
L 199.556309 138.130051 
L 213.460541 140.477211 
L 226.206086 142.360867 
L 238.951632 144.021958 
L 252.855864 145.616247 
L 267.918782 147.123645 
L 284.140386 148.528819 
L 292.251188 149.069654 
L 292.251188 149.069654 
" clip-path="url(#p6a6b53afd8)" style="fill: none; stroke: #1f77b4; stroke-width: 1.5; stroke-linecap: square"/>
   </g>
   <g id="line2d_14">
    <path d="M 61.672676 41.22 
L 62.831362 75.965749 
L 63.990048 96.152932 
L 65.148734 110.816668 
L 66.30742 122.227235 
L 67.466106 131.451767 
L 68.624792 139.102743 
L 69.783478 145.570192 
L 70.942164 151.119187 
L 72.10085 155.938229 
L 73.259536 160.165988 
L 74.418222 163.907222 
L 75.576908 167.242805 
L 77.89428 172.938462 
L 80.211651 177.625466 
L 82.529023 181.552125 
L 84.846395 184.890795 
L 87.163767 187.765069 
L 89.481139 190.265986 
L 91.798511 192.462143 
L 94.115883 194.40624 
L 96.433255 196.139444 
L 99.909313 198.413429 
L 103.385371 200.369509 
L 106.861429 202.070111 
L 110.337487 203.562296 
L 114.972231 205.288974 
L 119.606975 206.77327 
L 125.400405 208.35934 
L 131.193835 209.708756 
L 138.145951 211.084166 
L 146.256753 212.42821 
L 155.526241 213.70261 
L 165.954415 214.885229 
L 177.541275 215.966097 
L 191.445507 217.023534 
L 197.238937 217.403735 
L 198.397623 215.915992 
L 199.556309 143.764815 
L 200.714995 139.343273 
L 211.143169 141.296082 
L 221.571343 143.007776 
L 234.316888 144.85023 
L 247.062434 146.487054 
L 254.01455 147.170049 
L 260.966666 147.575479 
L 267.918782 148.015987 
L 273.712212 148.654702 
L 281.823014 149.605095 
L 287.616444 150.046493 
L 292.251188 150.246019 
L 292.251188 150.246019 
" clip-path="url(#p6a6b53afd8)" style="fill: none; stroke-dasharray: 5.55,2.4; stroke-dashoffset: 0; stroke: #ff7f0e; stroke-width: 1.5"/>
   </g>
   <g id="line2d_15">
    <path d="M 61.672676 41.22 
L 62.831362 76.041171 
L 63.990048 96.214218 
L 65.148734 110.86744 
L 66.30742 122.27049 
L 67.466106 131.489439 
L 68.624792 139.136114 
L 69.783478 145.60015 
L 70.942164 151.146371 
L 72.10085 155.963114 
L 73.259536 160.188935 
L 74.418222 163.928514 
L 75.576908 167.262667 
L 77.89428 172.955976 
L 80.211651 177.641132 
L 82.529023 181.566298 
L 84.846395 184.903737 
L 87.163767 187.776977 
L 89.481139 190.277014 
L 91.798511 192.472414 
L 94.115883 194.41585 
L 96.433255 196.148475 
L 99.909313 198.421711 
L 103.385371 200.377156 
L 106.861429 202.077215 
L 110.337487 203.568929 
L 114.972231 205.295068 
L 119.606975 206.778907 
L 125.400405 208.364493 
L 131.193835 209.713502 
L 138.145951 211.088501 
L 146.256753 212.432147 
L 155.526241 213.706175 
L 165.954415 214.888449 
L 177.541275 215.969006 
L 191.445507 217.026141 
L 200.714995 217.62 
L 201.873681 208.374374 
L 203.032367 160.867188 
L 204.191053 142.867197 
L 205.349739 142.188266 
L 220.412657 144.459371 
L 233.158202 146.177665 
L 243.586376 147.308507 
L 269.077468 149.894559 
L 291.092502 151.683742 
L 292.251188 151.683742 
L 292.251188 151.683742 
" clip-path="url(#p6a6b53afd8)" style="fill: none; stroke-dasharray: 9.6,2.4,1.5,2.4; stroke-dashoffset: 0; stroke: #2ca02c; stroke-width: 1.5"/>
   </g>
   <g id="line2d_16">
    <path d="M 61.672676 41.22 
L 62.831362 76.041171 
L 63.990048 96.214218 
L 65.148734 110.86744 
L 66.30742 122.27049 
L 67.466106 131.489439 
L 68.624792 139.136114 
L 69.783478 145.60015 
L 70.942164 151.146371 
L 72.10085 155.963114 
L 73.259536 160.188935 
L 74.418222 163.928514 
L 75.576908 167.262667 
L 77.89428 172.955976 
L 80.211651 177.641132 
L 82.529023 181.566298 
L 84.846395 184.903737 
L 87.163767 187.776977 
L 89.481139 190.277014 
L 91.798511 192.472414 
L 94.115883 194.41585 
L 96.433255 196.148475 
L 99.909313 198.421711 
L 103.385371 200.377156 
L 106.861429 202.077215 
L 110.337487 203.568929 
L 114.972231 205.295068 
L 119.606975 206.778907 
L 125.400405 208.364493 
L 131.193835 209.713502 
L 138.145951 211.088501 
L 146.256753 212.432147 
L 155.526241 213.706175 
L 165.954415 214.888449 
L 177.541275 215.969006 
L 191.445507 217.026141 
L 200.714995 217.62 
L 201.873681 208.374374 
L 203.032367 160.867188 
L 204.191053 142.867197 
L 205.349739 142.188266 
L 220.412657 144.459371 
L 233.158202 146.177665 
L 243.586376 147.308507 
L 269.077468 149.894559 
L 291.092502 151.683742 
L 292.251188 151.683742 
L 292.251188 151.683742 
" clip-path="url(#p6a6b53afd8)" style="fill: none; stroke-dasharray: 9.6,2.4,1.5,2.4; stroke-dashoffset: 0; stroke: #d62728; stroke-width: 1.5"/>
   </g>
   <g id="line2d_17">
    <path d="M 61.672676 41.22 
L 62.831362 55.460543 
L 63.990048 75.976915 
L 65.148734 93.436533 
L 66.30742 107.205612 
L 67.466106 118.356074 
L 68.624792 127.577591 
L 69.783478 135.335241 
L 70.942164 141.954636 
L 72.10085 147.670854 
L 73.259536 152.658037 
L 74.418222 157.048047 
L 75.576908 160.942601 
L 76.735594 164.42146 
L 79.052965 170.373539 
L 81.370337 175.280303 
L 83.687709 179.39556 
L 86.005081 182.896934 
L 88.322453 185.912502 
L 90.639825 188.536973 
L 92.957197 190.841903 
L 95.274569 192.882377 
L 97.591941 194.701489 
L 101.067999 197.088046 
L 104.544057 199.140731 
L 108.020115 200.925073 
L 111.496173 202.490499 
L 116.130917 204.3016 
L 120.765661 205.858147 
L 126.559091 207.521052 
L 132.352521 208.935508 
L 139.304637 210.376873 
L 146.256753 211.599139 
L 154.367555 212.809435 
L 163.637043 213.971776 
L 174.065217 215.064116 
L 182.176019 215.826128 
L 183.334705 215.8002 
L 184.493391 215.149332 
L 185.652077 209.655322 
L 186.810763 190.816883 
L 187.969449 156.410048 
L 189.128135 141.407431 
L 190.286821 138.231247 
L 191.445507 137.89164 
L 192.604193 138.006615 
L 203.032367 140.184151 
L 211.143169 141.544844 
L 226.206086 143.728723 
L 237.792946 145.194646 
L 250.538492 146.605607 
L 269.077468 148.419457 
L 284.140386 149.701476 
L 292.251188 150.174772 
L 292.251188 150.174772 
" clip-path="url(#p6a6b53afd8)" style="fill: none; stroke-dasharray: 1.5,2.475; stroke-dashoffset: 0; stroke: #9467bd; stroke-opacity: 0.5; stroke-width: 1.5"/>
   </g>
   <g id="patch_3">
    <path d="M 50.14375 226.44 
L 50.14375 32.4 
" style="fill: none; stroke: #000000; stroke-width: 0.8; stroke-linejoin: miter; stroke-linecap: square"/>
   </g>
   <g id="patch_4">
    <path d="M 303.780114 226.44 
L 303.780114 32.4 
" style="fill: none; stroke: #000000; stroke-width: 0.8; stroke-linejoin: miter; stroke-linecap: square"/>
   </g>
   <g id="patch_5">
    <path d="M 50.14375 226.44 
L 303.780114 226.44 
" style="fill: none; stroke: #000000; stroke-width: 0.8; stroke-linejoin: miter; stroke-linecap: square"/>
   </g>
   <g id="patch_6">
    <path d="M 50.14375 32.4 
L 303.780114 32.4 
" style="fill: none; stroke: #000000; stroke-width: 0.8; stroke-linejoin: miter; stroke-linecap: square"/>
   </g>
   <g id="legend_1">
    <g id="patch_7">
     <path d="M 222.231676 113.790625 
L 296.780114 113.790625 
Q 298.780114 113.790625 298.780114 111.790625 
L 298.780114 39.4 
Q 298.780114 37.4 296.780114 37.4 
L 222.231676 37.4 
Q 220.231676 37.4 220.231676 39.4 
L 220.231676 111.790625 
Q 220.231676 113.790625 222.231676 113.790625 
z
" style="fill: #ffffff; opacity: 0.8; stroke: #cccccc; stroke-linejoin: miter"/>
    </g>
    <g id="line2d_18">
     <path d="M 224.231676 45.498437 
L 234.231676 45.498437 
L 244.231676 45.498437 
" style="fill: none; stroke: #1f77b4; stroke-width: 1.5; stroke-linecap: square"/>
    </g>
    <g id="text_15">
     <!-- Rusanov -->
     <g transform="translate(252.231676 48.998437) scale(0.1 -0.1)">
      <defs>
       <path id="DejaVuSans-52" d="M 2841 2188 
Q 3044 2119 3236 1894 
Q 3428 1669 3622 1275 
L 4263 0 
L 3584 0 
L 2988 1197 
Q 2756 1666 2539 1819 
Q 2322 1972 1947 1972 
L 1259 1972 
L 1259 0 
L 628 0 
L 628 4666 
L 2053 4666 
Q 2853 4666 3247 4331 
Q 3641 3997 3641 3322 
Q 3641 2881 3436 2590 
Q 3231 2300 2841 2188 
z
M 1259 4147 
L 1259 2491 
L 2053 2491 
Q 2509 2491 2742 2702 
Q 2975 2913 2975 3322 
Q 2975 3731 2742 3939 
Q 2509 4147 2053 4147 
L 1259 4147 
z
" transform="scale(0.015625)"/>
       <path id="DejaVuSans-73" d="M 2834 3397 
L 2834 2853 
Q 2591 2978 2328 3040 
Q 2066 3103 1784 3103 
Q 1356 3103 1142 2972 
Q 928 2841 928 2578 
Q 928 2378 1081 2264 
Q 1234 2150 1697 2047 
L 1894 2003 
Q 2506 1872 2764 1633 
Q 3022 1394 3022 966 
Q 3022 478 2636 193 
Q 2250 -91 1575 -91 
Q 1294 -91 989 -36 
Q 684 19 347 128 
L 347 722 
Q 666 556 975 473 
Q 1284 391 1588 391 
Q 1994 391 2212 530 
Q 2431 669 2431 922 
Q 2431 1156 2273 1281 
Q 2116 1406 1581 1522 
L 1381 1569 
Q 847 1681 609 1914 
Q 372 2147 372 2553 
Q 372 3047 722 3315 
Q 1072 3584 1716 3584 
Q 2034 3584 2315 3537 
Q 2597 3491 2834 3397 
z
" transform="scale(0.015625)"/>
       <path id="DejaVuSans-6f" d="M 1959 3097 
Q 1497 3097 1228 2736 
Q 959 2375 959 1747 
Q 959 1119 1226 758 
Q 1494 397 1959 397 
Q 2419 397 2687 759 
Q 2956 1122 2956 1747 
Q 2956 2369 2687 2733 
Q 2419 3097 1959 3097 
z
M 1959 3584 
Q 2709 3584 3137 3096 
Q 3566 2609 3566 1747 
Q 3566 888 3137 398 
Q 2709 -91 1959 -91 
Q 1206 -91 779 398 
Q 353 888 353 1747 
Q 353 2609 779 3096 
Q 1206 3584 1959 3584 
z
" transform="scale(0.015625)"/>
       <path id="DejaVuSans-76" d="M 191 3500 
L 800 3500 
L 1894 563 
L 2988 3500 
L 3597 3500 
L 2284 0 
L 1503 0 
L 191 3500 
z
" transform="scale(0.015625)"/>
      </defs>
      <use xlink:href="#DejaVuSans-52"/>
      <use xlink:href="#DejaVuSans-75" x="64.982422"/>
      <use xlink:href="#DejaVuSans-73" x="128.361328"/>
      <use xlink:href="#DejaVuSans-61" x="180.460938"/>
      <use xlink:href="#DejaVuSans-6e" x="241.740234"/>
      <use xlink:href="#DejaVuSans-6f" x="305.119141"/>
      <use xlink:href="#DejaVuSans-76" x="366.300781"/>
     </g>
    </g>
    <g id="line2d_19">
     <path d="M 224.231676 60.176562 
L 234.231676 60.176562 
L 244.231676 60.176562 
" style="fill: none; stroke-dasharray: 5.55,2.4; stroke-dashoffset: 0; stroke: #ff7f0e; stroke-width: 1.5"/>
    </g>
    <g id="text_16">
     <!-- Roe -->
     <g transform="translate(252.231676 63.676562) scale(0.1 -0.1)">
      <use xlink:href="#DejaVuSans-52"/>
      <use xlink:href="#DejaVuSans-6f" x="64.982422"/>
      <use xlink:href="#DejaVuSans-65" x="126.164062"/>
     </g>
    </g>
    <g id="line2d_20">
     <path d="M 224.231676 74.854687 
L 234.231676 74.854687 
L 244.231676 74.854687 
" style="fill: none; stroke-dasharray: 9.6,2.4,1.5,2.4; stroke-dashoffset: 0; stroke: #2ca02c; stroke-width: 1.5"/>
    </g>
    <g id="text_17">
     <!-- HLL -->
     <g transform="translate(252.231676 78.354687) scale(0.1 -0.1)">
      <defs>
       <path id="DejaVuSans-4c" d="M 628 4666 
L 1259 4666 
L 1259 531 
L 3531 531 
L 3531 0 
L 628 0 
L 628 4666 
z
" transform="scale(0.015625)"/>
      </defs>
      <use xlink:href="#DejaVuSans-48"/>
      <use xlink:href="#DejaVuSans-4c" x="75.195312"/>
      <use xlink:href="#DejaVuSans-4c" x="130.908203"/>
     </g>
    </g>
    <g id="line2d_21">
     <path d="M 224.231676 89.532812 
L 234.231676 89.532812 
L 244.231676 89.532812 
" style="fill: none; stroke-dasharray: 9.6,2.4,1.5,2.4; stroke-dashoffset: 0; stroke: #d62728; stroke-width: 1.5"/>
    </g>
    <g id="text_18">
     <!-- HLLC -->
     <g transform="translate(252.231676 93.032812) scale(0.1 -0.1)">
      <defs>
       <path id="DejaVuSans-43" d="M 4122 4306 
L 4122 3641 
Q 3803 3938 3442 4084 
Q 3081 4231 2675 4231 
Q 1875 4231 1450 3742 
Q 1025 3253 1025 2328 
Q 1025 1406 1450 917 
Q 1875 428 2675 428 
Q 3081 428 3442 575 
Q 3803 722 4122 1019 
L 4122 359 
Q 3791 134 3420 21 
Q 3050 -91 2638 -91 
Q 1578 -91 968 557 
Q 359 1206 359 2328 
Q 359 3453 968 4101 
Q 1578 4750 2638 4750 
Q 3056 4750 3426 4639 
Q 3797 4528 4122 4306 
z
" transform="scale(0.015625)"/>
      </defs>
      <use xlink:href="#DejaVuSans-48"/>
      <use xlink:href="#DejaVuSans-4c" x="75.195312"/>
      <use xlink:href="#DejaVuSans-4c" x="130.908203"/>
      <use xlink:href="#DejaVuSans-43" x="186.621094"/>
     </g>
    </g>
    <g id="line2d_22">
     <path d="M 224.231676 104.210937 
L 234.231676 104.210937 
L 244.231676 104.210937 
" style="fill: none; stroke-dasharray: 1.5,2.475; stroke-dashoffset: 0; stroke: #9467bd; stroke-opacity: 0.5; stroke-width: 1.5"/>
    </g>
    <g id="text_19">
     <!-- MUSCL -->
     <g transform="translate(252.231676 107.710937) scale(0.1 -0.1)">
      <defs>
       <path id="DejaVuSans-4d" d="M 628 4666 
L 1569 4666 
L 2759 1491 
L 3956 4666 
L 4897 4666 
L 4897 0 
L 4281 0 
L 4281 4097 
L 3078 897 
L 2444 897 
L 1241 4097 
L 1241 0 
L 628 0 
L 628 4666 
z
" transform="scale(0.015625)"/>
       <path id="DejaVuSans-55" d="M 556 4666 
L 1191 4666 
L 1191 1831 
Q 1191 1081 1462 751 
Q 1734 422 2344 422 
Q 2950 422 3222 751 
Q 3494 1081 3494 1831 
L 3494 4666 
L 4128 4666 
L 4128 1753 
Q 4128 841 3676 375 
Q 3225 -91 2344 -91 
Q 1459 -91 1007 375 
Q 556 841 556 1753 
L 556 4666 
z
" transform="scale(0.015625)"/>
       <path id="DejaVuSans-53" d="M 3425 4513 
L 3425 3897 
Q 3066 4069 2747 4153 
Q 2428 4238 2131 4238 
Q 1616 4238 1336 4038 
Q 1056 3838 1056 3469 
Q 1056 3159 1242 3001 
Q 1428 2844 1947 2747 
L 2328 2669 
Q 3034 2534 3370 2195 
Q 3706 1856 3706 1288 
Q 3706 609 3251 259 
Q 2797 -91 1919 -91 
Q 1588 -91 1214 -16 
Q 841 59 441 206 
L 441 856 
Q 825 641 1194 531 
Q 1563 422 1919 422 
Q 2459 422 2753 634 
Q 3047 847 3047 1241 
Q 3047 1584 2836 1778 
Q 2625 1972 2144 2069 
L 1759 2144 
Q 1053 2284 737 2584 
Q 422 2884 422 3419 
Q 422 4038 858 4394 
Q 1294 4750 2059 4750 
Q 2388 4750 2728 4690 
Q 3069 4631 3425 4513 
z
" transform="scale(0.015625)"/>
      </defs>
      <use xlink:href="#DejaVuSans-4d"/>
      <use xlink:href="#DejaVuSans-55" x="86.279297"/>
      <use xlink:href="#DejaVuSans-53" x="159.472656"/>
      <use xlink:href="#DejaVuSans-43" x="222.949219"/>
      <use xlink:href="#DejaVuSans-4c" x="292.773438"/>
     </g>
    </g>
   </g>
  </g>
  <g id="axes_2">
   <g id="patch_8">
    <path d="M 354.507386 226.44 
L 608.14375 226.44 
L 608.14375 32.4 
L 354.507386 32.4 
z
" style="fill: #ffffff"/>
   </g>
   <g id="matplotlib.axis_3">
    <g id="xtick_8">
     <g id="line2d_23">
      <g>
       <use xlink:href="#ma5d985f88e" x="365.594591" y="226.44" style="stroke: #000000; stroke-width: 0.8"/>
      </g>
     </g>
     <g id="text_20">
      <!-- 0.160 -->
      <g transform="translate(351.280528 241.038437) scale(0.1 -0.1)">
       <defs>
        <path id="DejaVuSans-36" d="M 2113 2584 
Q 1688 2584 1439 2293 
Q 1191 2003 1191 1497 
Q 1191 994 1439 701 
Q 1688 409 2113 409 
Q 2538 409 2786 701 
Q 3034 994 3034 1497 
Q 3034 2003 2786 2293 
Q 2538 2584 2113 2584 
z
M 3366 4563 
L 3366 3988 
Q 3128 4100 2886 4159 
Q 2644 4219 2406 4219 
Q 1781 4219 1451 3797 
Q 1122 3375 1075 2522 
Q 1259 2794 1537 2939 
Q 1816 3084 2150 3084 
Q 2853 3084 3261 2657 
Q 3669 2231 3669 1497 
Q 3669 778 3244 343 
Q 2819 -91 2113 -91 
Q 1303 -91 875 529 
Q 447 1150 447 2328 
Q 447 3434 972 4092 
Q 1497 4750 2381 4750 
Q 2619 4750 2861 4703 
Q 3103 4656 3366 4563 
z
" transform="scale(0.015625)"/>
       </defs>
       <use xlink:href="#DejaVuSans-30"/>
       <use xlink:href="#DejaVuSans-2e" x="63.623047"/>
       <use xlink:href="#DejaVuSans-31" x="95.410156"/>
       <use xlink:href="#DejaVuSans-36" x="159.033203"/>
       <use xlink:href="#DejaVuSans-30" x="222.65625"/>
      </g>
     </g>
    </g>
    <g id="xtick_9">
     <g id="line2d_24">
      <g>
       <use xlink:href="#ma5d985f88e" x="424.490762" y="226.44" style="stroke: #000000; stroke-width: 0.8"/>
      </g>
     </g>
     <g id="text_21">
      <!-- 0.170 -->
      <g transform="translate(410.1767 241.038437) scale(0.1 -0.1)">
       <defs>
        <path id="DejaVuSans-37" d="M 525 4666 
L 3525 4666 
L 3525 4397 
L 1831 0 
L 1172 0 
L 2766 4134 
L 525 4134 
L 525 4666 
z
" transform="scale(0.015625)"/>
       </defs>
       <use xlink:href="#DejaVuSans-30"/>
       <use xlink:href="#DejaVuSans-2e" x="63.623047"/>
       <use xlink:href="#DejaVuSans-31" x="95.410156"/>
       <use xlink:href="#DejaVuSans-37" x="159.033203"/>
       <use xlink:href="#DejaVuSans-30" x="222.65625"/>
      </g>
     </g>
    </g>
    <g id="xtick_10">
     <g id="line2d_25">
      <g>
       <use xlink:href="#ma5d985f88e" x="483.386934" y="226.44" style="stroke: #000000; stroke-width: 0.8"/>
      </g>
     </g>
     <g id="text_22">
      <!-- 0.180 -->
      <g transform="translate(469.072872 241.038437) scale(0.1 -0.1)">
       <defs>
        <path id="DejaVuSans-38" d="M 2034 2216 
Q 1584 2216 1326 1975 
Q 1069 1734 1069 1313 
Q 1069 891 1326 650 
Q 1584 409 2034 409 
Q 2484 409 2743 651 
Q 3003 894 3003 1313 
Q 3003 1734 2745 1975 
Q 2488 2216 2034 2216 
z
M 1403 2484 
Q 997 2584 770 2862 
Q 544 3141 544 3541 
Q 544 4100 942 4425 
Q 1341 4750 2034 4750 
Q 2731 4750 3128 4425 
Q 3525 4100 3525 3541 
Q 3525 3141 3298 2862 
Q 3072 2584 2669 2484 
Q 3125 2378 3379 2068 
Q 3634 1759 3634 1313 
Q 3634 634 3220 271 
Q 2806 -91 2034 -91 
Q 1263 -91 848 271 
Q 434 634 434 1313 
Q 434 1759 690 2068 
Q 947 2378 1403 2484 
z
M 1172 3481 
Q 1172 3119 1398 2916 
Q 1625 2713 2034 2713 
Q 2441 2713 2670 2916 
Q 2900 3119 2900 3481 
Q 2900 3844 2670 4047 
Q 2441 4250 2034 4250 
Q 1625 4250 1398 4047 
Q 1172 3844 1172 3481 
z
" transform="scale(0.015625)"/>
       </defs>
       <use xlink:href="#DejaVuSans-30"/>
       <use xlink:href="#DejaVuSans-2e" x="63.623047"/>
       <use xlink:href="#DejaVuSans-31" x="95.410156"/>
       <use xlink:href="#DejaVuSans-38" x="159.033203"/>
       <use xlink:href="#DejaVuSans-30" x="222.65625"/>
      </g>
     </g>
    </g>
    <g id="xtick_11">
     <g id="line2d_26">
      <g>
       <use xlink:href="#ma5d985f88e" x="542.283106" y="226.44" style="stroke: #000000; stroke-width: 0.8"/>
      </g>
     </g>
     <g id="text_23">
      <!-- 0.190 -->
      <g transform="translate(527.969043 241.038437) scale(0.1 -0.1)">
       <defs>
        <path id="DejaVuSans-39" d="M 703 97 
L 703 672 
Q 941 559 1184 500 
Q 1428 441 1663 441 
Q 2288 441 2617 861 
Q 2947 1281 2994 2138 
Q 2813 1869 2534 1725 
Q 2256 1581 1919 1581 
Q 1219 1581 811 2004 
Q 403 2428 403 3163 
Q 403 3881 828 4315 
Q 1253 4750 1959 4750 
Q 2769 4750 3195 4129 
Q 3622 3509 3622 2328 
Q 3622 1225 3098 567 
Q 2575 -91 1691 -91 
Q 1453 -91 1209 -44 
Q 966 3 703 97 
z
M 1959 2075 
Q 2384 2075 2632 2365 
Q 2881 2656 2881 3163 
Q 2881 3666 2632 3958 
Q 2384 4250 1959 4250 
Q 1534 4250 1286 3958 
Q 1038 3666 1038 3163 
Q 1038 2656 1286 2365 
Q 1534 2075 1959 2075 
z
" transform="scale(0.015625)"/>
       </defs>
       <use xlink:href="#DejaVuSans-30"/>
       <use xlink:href="#DejaVuSans-2e" x="63.623047"/>
       <use xlink:href="#DejaVuSans-31" x="95.410156"/>
       <use xlink:href="#DejaVuSans-39" x="159.033203"/>
       <use xlink:href="#DejaVuSans-30" x="222.65625"/>
      </g>
     </g>
    </g>
    <g id="xtick_12">
     <g id="line2d_27">
      <g>
       <use xlink:href="#ma5d985f88e" x="601.179278" y="226.44" style="stroke: #000000; stroke-width: 0.8"/>
      </g>
     </g>
     <g id="text_24">
      <!-- 0.200 -->
      <g transform="translate(586.865215 241.038437) scale(0.1 -0.1)">
       <use xlink:href="#DejaVuSans-30"/>
       <use xlink:href="#DejaVuSans-2e" x="63.623047"/>
       <use xlink:href="#DejaVuSans-32" x="95.410156"/>
       <use xlink:href="#DejaVuSans-30" x="159.033203"/>
       <use xlink:href="#DejaVuSans-30" x="222.65625"/>
      </g>
     </g>
    </g>
    <g id="text_25">
     <!-- r (m) -->
     <g transform="translate(468.909162 254.716562) scale(0.1 -0.1)">
      <use xlink:href="#DejaVuSans-72"/>
      <use xlink:href="#DejaVuSans-20" x="41.113281"/>
      <use xlink:href="#DejaVuSans-28" x="72.900391"/>
      <use xlink:href="#DejaVuSans-6d" x="111.914062"/>
      <use xlink:href="#DejaVuSans-29" x="209.326172"/>
     </g>
    </g>
   </g>
   <g id="matplotlib.axis_4">
    <g id="ytick_6">
     <g id="line2d_28">
      <g>
       <use xlink:href="#m76aff55df9" x="354.507386" y="196.222525" style="stroke: #000000; stroke-width: 0.8"/>
      </g>
     </g>
     <g id="text_26">
      <!-- 0.005 -->
      <g transform="translate(318.879261 200.021744) scale(0.1 -0.1)">
       <use xlink:href="#DejaVuSans-30"/>
       <use xlink:href="#DejaVuSans-2e" x="63.623047"/>
       <use xlink:href="#DejaVuSans-30" x="95.410156"/>
       <use xlink:href="#DejaVuSans-30" x="159.033203"/>
       <use xlink:href="#DejaVuSans-35" x="222.65625"/>
      </g>
     </g>
    </g>
    <g id="ytick_7">
     <g id="line2d_29">
      <g>
       <use xlink:href="#m76aff55df9" x="354.507386" y="155.278889" style="stroke: #000000; stroke-width: 0.8"/>
      </g>
     </g>
     <g id="text_27">
      <!-- 0.010 -->
      <g transform="translate(318.879261 159.078108) scale(0.1 -0.1)">
       <use xlink:href="#DejaVuSans-30"/>
       <use xlink:href="#DejaVuSans-2e" x="63.623047"/>
       <use xlink:href="#DejaVuSans-30" x="95.410156"/>
       <use xlink:href="#DejaVuSans-31" x="159.033203"/>
       <use xlink:href="#DejaVuSans-30" x="222.65625"/>
      </g>
     </g>
    </g>
    <g id="ytick_8">
     <g id="line2d_30">
      <g>
       <use xlink:href="#m76aff55df9" x="354.507386" y="114.335253" style="stroke: #000000; stroke-width: 0.8"/>
      </g>
     </g>
     <g id="text_28">
      <!-- 0.015 -->
      <g transform="translate(318.879261 118.134472) scale(0.1 -0.1)">
       <use xlink:href="#DejaVuSans-30"/>
       <use xlink:href="#DejaVuSans-2e" x="63.623047"/>
       <use xlink:href="#DejaVuSans-30" x="95.410156"/>
       <use xlink:href="#DejaVuSans-31" x="159.033203"/>
       <use xlink:href="#DejaVuSans-35" x="222.65625"/>
      </g>
     </g>
    </g>
    <g id="ytick_9">
     <g id="line2d_31">
      <g>
       <use xlink:href="#m76aff55df9" x="354.507386" y="73.391617" style="stroke: #000000; stroke-width: 0.8"/>
      </g>
     </g>
     <g id="text_29">
      <!-- 0.020 -->
      <g transform="translate(318.879261 77.190836) scale(0.1 -0.1)">
       <use xlink:href="#DejaVuSans-30"/>
       <use xlink:href="#DejaVuSans-2e" x="63.623047"/>
       <use xlink:href="#DejaVuSans-30" x="95.410156"/>
       <use xlink:href="#DejaVuSans-32" x="159.033203"/>
       <use xlink:href="#DejaVuSans-30" x="222.65625"/>
      </g>
     </g>
    </g>
    <g id="ytick_10">
     <g id="line2d_32">
      <g>
       <use xlink:href="#m76aff55df9" x="354.507386" y="32.447982" style="stroke: #000000; stroke-width: 0.8"/>
      </g>
     </g>
     <g id="text_30">
      <!-- 0.025 -->
      <g transform="translate(318.879261 36.2472) scale(0.1 -0.1)">
       <use xlink:href="#DejaVuSans-30"/>
       <use xlink:href="#DejaVuSans-2e" x="63.623047"/>
       <use xlink:href="#DejaVuSans-30" x="95.410156"/>
       <use xlink:href="#DejaVuSans-32" x="159.033203"/>
       <use xlink:href="#DejaVuSans-35" x="222.65625"/>
      </g>
     </g>
    </g>
   </g>
   <g id="line2d_33">
    <path d="M 366.036312 210.292924 
L 374.576257 210.534189 
L 383.116202 210.766061 
L 391.656147 210.963526 
L 400.196092 210.980029 
L 408.736037 210.065759 
L 417.275981 205.623799 
L 425.815926 192.500213 
L 434.355871 165.02671 
L 442.895816 123.458116 
L 451.435761 81.328899 
L 459.975706 54.730144 
L 468.515651 44.260228 
L 477.055596 41.542786 
L 485.595541 41.22 
L 494.135486 41.502885 
L 502.67543 41.926394 
L 511.215375 42.378642 
L 519.75532 42.833336 
L 528.295265 43.284393 
L 536.83521 43.73046 
L 545.375155 44.171285 
L 553.9151 44.606871 
L 562.455045 45.037279 
L 570.99499 45.462583 
L 579.534935 45.882857 
L 588.074879 46.298175 
L 596.614824 46.70861 
" clip-path="url(#p59381150a1)" style="fill: none; stroke: #1f77b4; stroke-width: 1.5; stroke-linecap: square"/>
   </g>
   <g id="line2d_34">
    <path d="M 366.036312 214.596509 
L 374.576257 214.799612 
L 383.116202 214.999092 
L 391.656147 215.195044 
L 400.196092 215.387561 
L 408.736037 215.576733 
L 417.275981 215.762646 
L 425.815926 215.945384 
L 434.355871 216.125027 
L 442.895816 216.301654 
L 451.435761 216.475339 
L 459.975706 216.646156 
L 468.515651 216.814175 
L 477.055596 216.979464 
L 485.595541 217.141997 
L 494.135486 213.853697 
L 502.67543 54.380699 
L 511.215375 44.607933 
L 519.75532 45.114133 
L 528.295265 45.615787 
L 536.83521 46.109975 
L 545.375155 46.596795 
L 553.9151 47.076348 
L 562.455045 47.548744 
L 570.99499 48.014095 
L 579.534935 48.472522 
L 588.074879 48.924153 
L 596.614824 49.369121 
" clip-path="url(#p59381150a1)" style="fill: none; stroke-dasharray: 5.55,2.4; stroke-dashoffset: 0; stroke: #ff7f0e; stroke-width: 1.5"/>
   </g>
   <g id="line2d_35">
    <path d="M 366.036312 214.602758 
L 374.576257 214.805803 
L 383.116202 215.005225 
L 391.656147 215.201121 
L 400.196092 215.393584 
L 408.736037 215.582701 
L 417.275981 215.768562 
L 425.815926 215.951247 
L 434.355871 216.130839 
L 442.895816 216.307415 
L 451.435761 216.481051 
L 459.975706 216.651819 
L 468.515651 216.81979 
L 477.055596 216.985032 
L 485.595541 217.147611 
L 494.135486 160.327716 
L 502.67543 77.184003 
L 511.215375 48.181363 
L 519.75532 45.734942 
L 528.295265 46.171075 
L 536.83521 46.631959 
L 545.375155 47.084847 
L 553.9151 47.529884 
L 562.455045 47.967241 
L 570.99499 48.397094 
L 579.534935 48.819623 
L 588.074879 49.235011 
L 596.614824 49.643445 
" clip-path="url(#p59381150a1)" style="fill: none; stroke-dasharray: 9.6,2.4,1.5,2.4; stroke-dashoffset: 0; stroke: #2ca02c; stroke-width: 1.5"/>
   </g>
   <g id="line2d_36">
    <path d="M 366.036312 214.602758 
L 374.576257 214.805803 
L 383.116202 215.005225 
L 391.656147 215.201121 
L 400.196092 215.393584 
L 408.736037 215.582701 
L 417.275981 215.768562 
L 425.815926 215.951247 
L 434.355871 216.130839 
L 442.895816 216.307415 
L 451.435761 216.481051 
L 459.975706 216.651819 
L 468.515651 216.81979 
L 477.055596 216.985032 
L 485.595541 217.147611 
L 494.135486 217.307592 
L 502.67543 217.465034 
L 511.215375 217.62 
L 519.75532 197.184746 
L 528.295265 92.181423 
L 536.83521 52.396727 
L 545.375155 50.896112 
L 553.9151 51.299987 
L 562.455045 51.705165 
L 570.99499 52.106154 
L 579.534935 52.503063 
L 588.074879 52.896017 
L 596.614824 53.285151 
" clip-path="url(#p59381150a1)" style="fill: none; stroke-dasharray: 9.6,2.4,1.5,2.4; stroke-dashoffset: 0; stroke: #d62728; stroke-width: 1.5"/>
   </g>
   <g id="line2d_37">
    <path d="M 366.036312 213.484265 
L 374.576257 213.655074 
L 383.116202 213.597766 
L 391.656147 212.159176 
L 400.196092 200.015976 
L 408.736037 158.378091 
L 417.275981 82.329976 
L 425.815926 49.170264 
L 434.355871 42.150066 
L 442.895816 41.399445 
L 451.435761 41.65357 
L 459.975706 42.209988 
L 468.515651 42.904864 
L 477.055596 43.482824 
L 485.595541 44.028889 
L 494.135486 44.55033 
L 502.67543 45.047668 
L 511.215375 45.528823 
L 519.75532 46.00054 
L 528.295265 46.466494 
L 536.83521 46.927146 
L 545.375155 47.380634 
L 553.9151 47.824181 
L 562.455045 48.255461 
L 570.99499 48.673504 
L 579.534935 49.078986 
L 588.074879 49.473981 
L 596.614824 49.861324 
" clip-path="url(#p59381150a1)" style="fill: none; stroke-dasharray: 1.5,2.475; stroke-dashoffset: 0; stroke: #9467bd; stroke-width: 1.5"/>
   </g>
   <g id="patch_9">
    <path d="M 354.507386 226.44 
L 354.507386 32.4 
" style="fill: none; stroke: #000000; stroke-width: 0.8; stroke-linejoin: miter; stroke-linecap: square"/>
   </g>
   <g id="patch_10">
    <path d="M 608.14375 226.44 
L 608.14375 32.4 
" style="fill: none; stroke: #000000; stroke-width: 0.8; stroke-linejoin: miter; stroke-linecap: square"/>
   </g>
   <g id="patch_11">
    <path d="M 354.507386 226.44 
L 608.14375 226.44 
" style="fill: none; stroke: #000000; stroke-width: 0.8; stroke-linejoin: miter; stroke-linecap: square"/>
   </g>
   <g id="patch_12">
    <path d="M 354.507386 32.4 
L 608.14375 32.4 
" style="fill: none; stroke: #000000; stroke-width: 0.8; stroke-linejoin: miter; stroke-linecap: square"/>
   </g>
   <g id="legend_2">
    <g id="patch_13">
     <path d="M 526.595312 221.44 
L 601.14375 221.44 
Q 603.14375 221.44 603.14375 219.44 
L 603.14375 147.049375 
Q 603.14375 145.049375 601.14375 145.049375 
L 526.595312 145.049375 
Q 524.595312 145.049375 524.595312 147.049375 
L 524.595312 219.44 
Q 524.595312 221.44 526.595312 221.44 
z
" style="fill: #ffffff; opacity: 0.8; stroke: #cccccc; stroke-linejoin: miter"/>
    </g>
    <g id="line2d_38">
     <path d="M 528.595312 153.147812 
L 538.595312 153.147812 
L 548.595312 153.147812 
" style="fill: none; stroke: #1f77b4; stroke-width: 1.5; stroke-linecap: square"/>
    </g>
    <g id="text_31">
     <!-- Rusanov -->
     <g transform="translate(556.595312 156.647812) scale(0.1 -0.1)">
      <use xlink:href="#DejaVuSans-52"/>
      <use xlink:href="#DejaVuSans-75" x="64.982422"/>
      <use xlink:href="#DejaVuSans-73" x="128.361328"/>
      <use xlink:href="#DejaVuSans-61" x="180.460938"/>
      <use xlink:href="#DejaVuSans-6e" x="241.740234"/>
      <use xlink:href="#DejaVuSans-6f" x="305.119141"/>
      <use xlink:href="#DejaVuSans-76" x="366.300781"/>
     </g>
    </g>
    <g id="line2d_39">
     <path d="M 528.595312 167.825937 
L 538.595312 167.825937 
L 548.595312 167.825937 
" style="fill: none; stroke-dasharray: 5.55,2.4; stroke-dashoffset: 0; stroke: #ff7f0e; stroke-width: 1.5"/>
    </g>
    <g id="text_32">
     <!-- Roe -->
     <g transform="translate(556.595312 171.325937) scale(0.1 -0.1)">
      <use xlink:href="#DejaVuSans-52"/>
      <use xlink:href="#DejaVuSans-6f" x="64.982422"/>
      <use xlink:href="#DejaVuSans-65" x="126.164062"/>
     </g>
    </g>
    <g id="line2d_40">
     <path d="M 528.595312 182.504062 
L 538.595312 182.504062 
L 548.595312 182.504062 
" style="fill: none; stroke-dasharray: 9.6,2.4,1.5,2.4; stroke-dashoffset: 0; stroke: #2ca02c; stroke-width: 1.5"/>
    </g>
    <g id="text_33">
     <!-- HLL -->
     <g transform="translate(556.595312 186.004062) scale(0.1 -0.1)">
      <use xlink:href="#DejaVuSans-48"/>
      <use xlink:href="#DejaVuSans-4c" x="75.195312"/>
      <use xlink:href="#DejaVuSans-4c" x="130.908203"/>
     </g>
    </g>
    <g id="line2d_41">
     <path d="M 528.595312 197.182187 
L 538.595312 197.182187 
L 548.595312 197.182187 
" style="fill: none; stroke-dasharray: 9.6,2.4,1.5,2.4; stroke-dashoffset: 0; stroke: #d62728; stroke-width: 1.5"/>
    </g>
    <g id="text_34">
     <!-- HLLC -->
     <g transform="translate(556.595312 200.682187) scale(0.1 -0.1)">
      <use xlink:href="#DejaVuSans-48"/>
      <use xlink:href="#DejaVuSans-4c" x="75.195312"/>
      <use xlink:href="#DejaVuSans-4c" x="130.908203"/>
      <use xlink:href="#DejaVuSans-43" x="186.621094"/>
     </g>
    </g>
    <g id="line2d_42">
     <path d="M 528.595312 211.860312 
L 538.595312 211.860312 
L 548.595312 211.860312 
" style="fill: none; stroke-dasharray: 1.5,2.475; stroke-dashoffset: 0; stroke: #9467bd; stroke-width: 1.5"/>
    </g>
    <g id="text_35">
     <!-- MUSCL -->
     <g transform="translate(556.595312 215.360312) scale(0.1 -0.1)">
      <use xlink:href="#DejaVuSans-4d"/>
      <use xlink:href="#DejaVuSans-55" x="86.279297"/>
      <use xlink:href="#DejaVuSans-53" x="159.472656"/>
      <use xlink:href="#DejaVuSans-43" x="222.949219"/>
      <use xlink:href="#DejaVuSans-4c" x="292.773438"/>
     </g>
    </g>
   </g>
  </g>
  <g id="text_36">
   <!-- Ressaut avec conditions initiales : $h_0$ = 0.05 m, $u_0$ = 0.8 m/s -->
   <g transform="translate(138.04375 16.318125) scale(0.12 -0.12)">
    <defs>
     <path id="DejaVuSans-63" d="M 3122 3366 
L 3122 2828 
Q 2878 2963 2633 3030 
Q 2388 3097 2138 3097 
Q 1578 3097 1268 2742 
Q 959 2388 959 1747 
Q 959 1106 1268 751 
Q 1578 397 2138 397 
Q 2388 397 2633 464 
Q 2878 531 3122 666 
L 3122 134 
Q 2881 22 2623 -34 
Q 2366 -91 2075 -91 
Q 1284 -91 818 406 
Q 353 903 353 1747 
Q 353 2603 823 3093 
Q 1294 3584 2113 3584 
Q 2378 3584 2631 3529 
Q 2884 3475 3122 3366 
z
" transform="scale(0.015625)"/>
     <path id="DejaVuSans-64" d="M 2906 2969 
L 2906 4863 
L 3481 4863 
L 3481 0 
L 2906 0 
L 2906 525 
Q 2725 213 2448 61 
Q 2172 -91 1784 -91 
Q 1150 -91 751 415 
Q 353 922 353 1747 
Q 353 2572 751 3078 
Q 1150 3584 1784 3584 
Q 2172 3584 2448 3432 
Q 2725 3281 2906 2969 
z
M 947 1747 
Q 947 1113 1208 752 
Q 1469 391 1925 391 
Q 2381 391 2643 752 
Q 2906 1113 2906 1747 
Q 2906 2381 2643 2742 
Q 2381 3103 1925 3103 
Q 1469 3103 1208 2742 
Q 947 2381 947 1747 
z
" transform="scale(0.015625)"/>
     <path id="DejaVuSans-3a" d="M 750 794 
L 1409 794 
L 1409 0 
L 750 0 
L 750 794 
z
M 750 3309 
L 1409 3309 
L 1409 2516 
L 750 2516 
L 750 3309 
z
" transform="scale(0.015625)"/>
     <path id="DejaVuSans-Oblique-68" d="M 3566 2113 
L 3156 0 
L 2578 0 
L 2988 2091 
Q 3016 2238 3031 2350 
Q 3047 2463 3047 2528 
Q 3047 2791 2881 2937 
Q 2716 3084 2419 3084 
Q 1956 3084 1617 2771 
Q 1278 2459 1178 1941 
L 800 0 
L 225 0 
L 1172 4863 
L 1747 4863 
L 1375 2950 
Q 1594 3244 1934 3414 
Q 2275 3584 2650 3584 
Q 3113 3584 3367 3334 
Q 3622 3084 3622 2631 
Q 3622 2519 3608 2391 
Q 3594 2263 3566 2113 
z
" transform="scale(0.015625)"/>
     <path id="DejaVuSans-3d" d="M 678 2906 
L 4684 2906 
L 4684 2381 
L 678 2381 
L 678 2906 
z
M 678 1631 
L 4684 1631 
L 4684 1100 
L 678 1100 
L 678 1631 
z
" transform="scale(0.015625)"/>
     <path id="DejaVuSans-2c" d="M 750 794 
L 1409 794 
L 1409 256 
L 897 -744 
L 494 -744 
L 750 256 
L 750 794 
z
" transform="scale(0.015625)"/>
     <path id="DejaVuSans-Oblique-75" d="M 428 1388 
L 838 3500 
L 1416 3500 
L 1006 1409 
Q 975 1256 961 1147 
Q 947 1038 947 966 
Q 947 700 1109 554 
Q 1272 409 1569 409 
Q 2031 409 2368 721 
Q 2706 1034 2809 1563 
L 3194 3500 
L 3769 3500 
L 3091 0 
L 2516 0 
L 2631 550 
Q 2388 244 2052 76 
Q 1716 -91 1338 -91 
Q 878 -91 622 161 
Q 366 413 366 863 
Q 366 956 381 1097 
Q 397 1238 428 1388 
z
" transform="scale(0.015625)"/>
     <path id="DejaVuSans-2f" d="M 1625 4666 
L 2156 4666 
L 531 -594 
L 0 -594 
L 1625 4666 
z
" transform="scale(0.015625)"/>
    </defs>
    <use xlink:href="#DejaVuSans-52" transform="translate(0 0.015625)"/>
    <use xlink:href="#DejaVuSans-65" transform="translate(69.482422 0.015625)"/>
    <use xlink:href="#DejaVuSans-73" transform="translate(131.005859 0.015625)"/>
    <use xlink:href="#DejaVuSans-73" transform="translate(183.105469 0.015625)"/>
    <use xlink:href="#DejaVuSans-61" transform="translate(235.205078 0.015625)"/>
    <use xlink:href="#DejaVuSans-75" transform="translate(296.484375 0.015625)"/>
    <use xlink:href="#DejaVuSans-74" transform="translate(359.863281 0.015625)"/>
    <use xlink:href="#DejaVuSans-20" transform="translate(399.072266 0.015625)"/>
    <use xlink:href="#DejaVuSans-61" transform="translate(430.859375 0.015625)"/>
    <use xlink:href="#DejaVuSans-76" transform="translate(492.138672 0.015625)"/>
    <use xlink:href="#DejaVuSans-65" transform="translate(551.318359 0.015625)"/>
    <use xlink:href="#DejaVuSans-63" transform="translate(612.841797 0.015625)"/>
    <use xlink:href="#DejaVuSans-20" transform="translate(667.822266 0.015625)"/>
    <use xlink:href="#DejaVuSans-63" transform="translate(699.609375 0.015625)"/>
    <use xlink:href="#DejaVuSans-6f" transform="translate(754.589844 0.015625)"/>
    <use xlink:href="#DejaVuSans-6e" transform="translate(815.771484 0.015625)"/>
    <use xlink:href="#DejaVuSans-64" transform="translate(879.150391 0.015625)"/>
    <use xlink:href="#DejaVuSans-69" transform="translate(942.626953 0.015625)"/>
    <use xlink:href="#DejaVuSans-74" transform="translate(970.410156 0.015625)"/>
    <use xlink:href="#DejaVuSans-69" transform="translate(1009.619141 0.015625)"/>
    <use xlink:href="#DejaVuSans-6f" transform="translate(1037.402344 0.015625)"/>
    <use xlink:href="#DejaVuSans-6e" transform="translate(1098.583984 0.015625)"/>
    <use xlink:href="#DejaVuSans-73" transform="translate(1161.962891 0.015625)"/>
    <use xlink:href="#DejaVuSans-20" transform="translate(1214.0625 0.015625)"/>
    <use xlink:href="#DejaVuSans-69" transform="translate(1245.849609 0.015625)"/>
    <use xlink:href="#DejaVuSans-6e" transform="translate(1273.632812 0.015625)"/>
    <use xlink:href="#DejaVuSans-69" transform="translate(1337.011719 0.015625)"/>
    <use xlink:href="#DejaVuSans-74" transform="translate(1364.794922 0.015625)"/>
    <use xlink:href="#DejaVuSans-69" transform="translate(1404.003906 0.015625)"/>
    <use xlink:href="#DejaVuSans-61" transform="translate(1431.787109 0.015625)"/>
    <use xlink:href="#DejaVuSans-6c" transform="translate(1493.066406 0.015625)"/>
    <use xlink:href="#DejaVuSans-65" transform="translate(1520.849609 0.015625)"/>
    <use xlink:href="#DejaVuSans-73" transform="translate(1582.373047 0.015625)"/>
    <use xlink:href="#DejaVuSans-20" transform="translate(1634.472656 0.015625)"/>
    <use xlink:href="#DejaVuSans-3a" transform="translate(1666.259766 0.015625)"/>
    <use xlink:href="#DejaVuSans-20" transform="translate(1699.951172 0.015625)"/>
    <use xlink:href="#DejaVuSans-Oblique-68" transform="translate(1731.738281 0.015625)"/>
    <use xlink:href="#DejaVuSans-30" transform="translate(1795.117188 -16.390625) scale(0.7)"/>
    <use xlink:href="#DejaVuSans-20" transform="translate(1842.387695 0.015625)"/>
    <use xlink:href="#DejaVuSans-3d" transform="translate(1874.174805 0.015625)"/>
    <use xlink:href="#DejaVuSans-20" transform="translate(1957.963867 0.015625)"/>
    <use xlink:href="#DejaVuSans-30" transform="translate(1989.750977 0.015625)"/>
    <use xlink:href="#DejaVuSans-2e" transform="translate(2053.374023 0.015625)"/>
    <use xlink:href="#DejaVuSans-30" transform="translate(2085.161133 0.015625)"/>
    <use xlink:href="#DejaVuSans-35" transform="translate(2148.78418 0.015625)"/>
    <use xlink:href="#DejaVuSans-20" transform="translate(2212.407227 0.015625)"/>
    <use xlink:href="#DejaVuSans-6d" transform="translate(2244.194336 0.015625)"/>
    <use xlink:href="#DejaVuSans-2c" transform="translate(2341.606445 0.015625)"/>
    <use xlink:href="#DejaVuSans-20" transform="translate(2373.393555 0.015625)"/>
    <use xlink:href="#DejaVuSans-Oblique-75" transform="translate(2405.180664 0.015625)"/>
    <use xlink:href="#DejaVuSans-30" transform="translate(2468.55957 -16.390625) scale(0.7)"/>
    <use xlink:href="#DejaVuSans-20" transform="translate(2515.830078 0.015625)"/>
    <use xlink:href="#DejaVuSans-3d" transform="translate(2547.617188 0.015625)"/>
    <use xlink:href="#DejaVuSans-20" transform="translate(2631.40625 0.015625)"/>
    <use xlink:href="#DejaVuSans-30" transform="translate(2663.193359 0.015625)"/>
    <use xlink:href="#DejaVuSans-2e" transform="translate(2726.816406 0.015625)"/>
    <use xlink:href="#DejaVuSans-38" transform="translate(2755.978516 0.015625)"/>
    <use xlink:href="#DejaVuSans-20" transform="translate(2819.601562 0.015625)"/>
    <use xlink:href="#DejaVuSans-6d" transform="translate(2851.388672 0.015625)"/>
    <use xlink:href="#DejaVuSans-2f" transform="translate(2948.800781 0.015625)"/>
    <use xlink:href="#DejaVuSans-73" transform="translate(2982.492188 0.015625)"/>
   </g>
  </g>
 </g>
 <defs>
  <clipPath id="p6a6b53afd8">
   <rect x="50.14375" y="32.4" width="253.636364" height="194.04"/>
  </clipPath>
  <clipPath id="p59381150a1">
   <rect x="354.507386" y="32.4" width="253.636364" height="194.04"/>
  </clipPath>
 </defs>
</svg>
